<?xml version="1.0" encoding="utf-8"?>
<!-- Generator: Adobe Illustrator 24.1.0, SVG Export Plug-In . SVG Version: 6.00 Build 0)  -->
<svg version="1.1" id="Layer_1" xmlns="http://www.w3.org/2000/svg" xmlns:xlink="http://www.w3.org/1999/xlink" x="0px" y="0px"
	 viewBox="0 0 700 935" style="enable-background:new 0 0 700 935;" xml:space="preserve">
<style type="text/css">
	.st0{fill:#7AB2F4;}
	.st1{fill:none;stroke:#000000;stroke-width:2;stroke-miterlimit:10;}
	.st2{fill:#177219;}
	.st3{fill:none;stroke:#00FF00;stroke-width:2;stroke-miterlimit:10;}
	.st4{opacity:0.36;fill:none;stroke:#000000;stroke-width:2;stroke-miterlimit:10;enable-background:new    ;}
	.st5{opacity:0.47;fill:none;stroke:#000000;stroke-width:2;stroke-miterlimit:10;enable-background:new    ;}
	.st6{opacity:0.59;fill:none;stroke:#000000;stroke-width:2;stroke-miterlimit:10;enable-background:new    ;}
	.st7{fill:#56B3CC;stroke:#000000;stroke-width:0.5;stroke-miterlimit:10;}
	.st8{stroke:#000000;stroke-width:0.5;stroke-miterlimit:10;}
	.st9{opacity:0.47;fill:none;stroke:#000000;stroke-width:1.9996;stroke-miterlimit:9.9984;enable-background:new    ;}
	.st10{opacity:0.59;fill:none;stroke:#000000;stroke-width:2.0001;stroke-miterlimit:10.0003;enable-background:new    ;}
	.st11{opacity:0.7;fill:#56B3CC;stroke:#000000;stroke-miterlimit:10;enable-background:new    ;}
	.st12{fill:#56B3CC;}
	.st13{fill:#56B3CC;stroke:#000000;stroke-miterlimit:10;}
	.st14{fill:none;stroke:#000000;stroke-miterlimit:10;}
	.st15{fill:none;stroke:#000000;stroke-width:1;stroke-miterlimit:9.9994;}
	.st16{stroke:#000000;stroke-width:1;stroke-miterlimit:10.0015;}
	.st17{fill:#020100;stroke:#020100;stroke-miterlimit:10;}
	.st18{stroke:#020100;stroke-miterlimit:10;}
	.st19{fill:none;stroke:#FFFFFF;stroke-miterlimit:10;}
	.st20{stroke:#000000;stroke-width:1;stroke-miterlimit:10.0025;}
	.st21{fill:#020100;}
	.st22{opacity:0.59;fill:none;stroke:#000000;stroke-width:2;stroke-miterlimit:9.9999;enable-background:new    ;}
	.st23{fill:none;stroke:#000000;stroke-width:0.5;stroke-miterlimit:10;}
	.st24{fill:#47ABE2;}
	.st25{fill:#FFFFFF;}
	.st26{fill:#E53042;}
	.st27{fill:#326CBF;}
	.st28{fill:#26C42A;}
</style>
<g id="jorden">
	<ellipse class="st0" cx="350" cy="532.1" rx="108.1" ry="108.8"/>
	<path class="st1" d="M311.8,469.2"/>
	<path class="st2" d="M430.9,460l7.4,9.3l7.8,12.8l4.3,9.4l2.2,6L456,510l0.9,4.7l1.2,10.7v10.7c0,0-2.1-1.7-3.1,0.3s-6,5-7,4
		c0,0-6,2-10-6s-21,3-21,3s-14,4-22-8s-3-20-5-29s-16-22-21-21s-6-26,17-22s27-4,27-4L430.9,460z"/>
	<path class="st2" d="M300.1,435.6l6.8-3.2l4.8-2l8.5-2.8l2.6-0.7l10-2.1c0,0,13.5-1.7,13.5,5.3s3,11-3,16s-19,4-23,10s0,12,3,13
		s3,2,0,8s-19,4-19,0s-6-11-6-17s5-8,6-12S300.1,435.6,300.1,435.6z"/>
	<path class="st2" d="M340.2,471c0,0-9,4-6,8s10,6,11,4s6-5,5-7s-2,2-5,1S340.2,471,340.2,471z"/>
	<path class="st2" d="M249.4,492.2l3.4-7.8l3.8-7.1l1.3-2.2l6.1-9c0,0,14.3,2.8,14.3,8.8s-1,13-4,17s-4,15-10,16s-12,2-14,0
		s-4.5-4.8-4.5-4.8L249.4,492.2z"/>
	<path class="st2" d="M348.2,553c0,0-9-7-5-15s3-7,10-10s13-12,11-14s13-9,12-1c6.3,9.8,9.1,21.4,8,33c-2,19,11,12,11,12s15-2,24,1
		s3,14,3,14s-23,22-27,30s-21,26-26,16s-1-17,0-30s-4-26-10-26S348.2,553,348.2,553z"/>
	<path class="st2" d="M245,558.3l1.4,5.1l2,6.1l2.8,7.1l2.9,6l2.6,4.8l2.5,4l3,4.5l5.9,7.5l6.7,7.2l3.4,3.2c0,0,15.1-3.7,18.1-9.7
		s10-8,7-14s-3-8-6-8s-8-1-7-3s2-5,0-6s-5-2-5-7s3-4,2-11s-5-13-7-13s-6,1-6-4s-1-11-5-9c0,0-7-5-14,0c-3.5,2.4-6.9,5.1-10,8
		c0,0-2,6-2,7s1,11.3,1,11.3L245,558.3z"/>
	<path class="st2" d="M340.4,577.6c0,0-3.8-9.1-7.8-6.2c-4.1,2.9-6.3,9.8-4.3,10.9c2,1.1,4.8,6.1,6.9,5.2c2.1-0.9-2-2.1-0.9-5
		C335.4,579.6,340.4,577.6,340.4,577.6z"/>
</g>
<g id="symbols">
	<g id="arbejde">
		<g id="line_x5F_5">
			<circle class="st1" cx="238.3" cy="477.8" r="3"/>
			<circle class="st1" cx="138.3" cy="425.8" r="3"/>
			<polyline class="st1" points="235.3,477.8 171.1,477.8 137.9,444.6 137.9,428.8 			"/>
		</g>
		<g id="line_x5F_5_x5F_anim">
			<circle id="circle_x5F_5_x5F_start" class="st3" cx="238.3" cy="477.8" r="3"/>
			<circle id="circle_x5F_5_x5F_end" class="st3" cx="138.3" cy="425.8" r="3"/>
			<polyline id="path_x5F_5" class="st3" points="235.3,477.8 171.1,477.8 137.9,444.6 137.9,428.8 			"/>
		</g>
		<g id="symbol_x5F_5">
			<circle class="st4" cx="137.6" cy="364.9" r="50.5"/>
			<circle class="st5" cx="137.4" cy="365.2" r="40.2"/>
			<circle class="st6" cx="137.6" cy="364.4" r="30"/>
			<path class="st7" d="M149.6,398.2h11.8c1.1,0,2,0.9,2,2v0.5c0,1.1-0.9,2-2,2h-11.8c-1.1,0-2-0.9-2-2v-0.5
				C147.6,399.1,148.4,398.2,149.6,398.2z"/>
			<rect x="153.1" y="369.9" class="st7" width="4.5" height="28.2"/>
			<path class="st7" d="M140.1,365.4h30.4c0.3,0,0.6,0.3,0.6,0.6v3.3c0,0.3-0.3,0.6-0.6,0.6h-30.4c-0.3,0-0.6-0.3-0.6-0.6V366
				C139.6,365.7,139.9,365.4,140.1,365.4z"/>
			<path class="st8" d="M167.4,340.4l3.2,0.6c0.3,0.1,0.6,0.4,0.5,0.7l-4.1,20.1c-0.1,0.3-0.4,0.6-0.7,0.5l-3.2-0.6
				c-0.3-0.1-0.6-0.4-0.5-0.7l4.1-20.1C166.6,340.7,167.1,340.4,167.4,340.4z"/>
			<path class="st8" d="M166.7,359.2v3.3c0,0.3-0.3,0.6-0.6,0.6h-21.4c-0.3,0-0.6-0.3-0.6-0.6v-3.3c0-0.3,0.3-0.6,0.6-0.6h21.4
				C166.4,358.7,166.7,358.9,166.7,359.2z"/>
			<circle class="st8" cx="120.4" cy="337.2" r="6.8"/>
			<path class="st8" d="M114.7,348.4h6.8c1.2,0,2.2,1,2.2,2.2V371c0,1.2-1,2.2-2.2,2.2h-6.8c-1.2,0-2.2-1-2.2-2.2v-20.4
				C112.6,349.4,113.6,348.4,114.7,348.4z"/>
			<rect x="121.6" y="369.9" class="st8" width="11.3" height="3.4"/>
			<path class="st8" d="M133.3,369.9h2.6c0.2,0,0.4,0.2,0.4,0.4v2.6c0,0.2-0.2,0.4-0.4,0.4h-2.6c-0.2,0-0.4-0.2-0.4-0.4v-2.6
				C132.9,370.1,133.1,369.9,133.3,369.9z"/>
			<path class="st8" d="M134.4,371.1h0.4c0.8,0,1.5,0.7,1.5,1.5V399c0,0.8-0.7,1.5-1.5,1.5h-0.4c-0.8,0-1.5-0.7-1.5-1.5v-26.4
				C132.9,371.7,133.6,371.1,134.4,371.1z"/>
			<path class="st8" d="M121.6,349.7l0.4-0.2c0.9-0.5,2-0.2,2.5,0.7l3.5,6.1c0.5,0.9,0.2,2-0.7,2.5l-0.4,0.2c-0.9,0.5-2,0.2-2.5-0.7
				l-3.5-6.1C120.4,351.2,120.6,350.2,121.6,349.7z"/>
			<path class="st8" d="M125.9,356.4h12.7c0.6,0,1,0.4,1,1v1.4c0,0.6-0.4,1-1,1h-12.7c-0.6,0-1-0.4-1-1v-1.4
				C124.9,356.9,125.4,356.4,125.9,356.4z"/>
			<path class="st8" d="M107.7,355.2h0.5c1.1,0,2,0.9,2,2v43.4c0,1.1-0.9,2-2,2h-0.5c-1.1,0-2-0.9-2-2v-43.3
				C105.7,356.2,106.7,355.2,107.7,355.2z"/>
			<path class="st8" d="M128.1,375.5h0.5c1.1,0,2,0.9,2,2v23.1c0,1.1-0.9,2-2,2h-0.5c-1.1,0-2-0.9-2-2v-23.1
				C126.1,376.4,126.9,375.5,128.1,375.5z"/>
			<rect x="110.3" y="375.5" class="st8" width="18.1" height="4.5"/>
		</g>
	</g>
	<g id="kommunikation">
		<g id="line_x5F_4">
			<circle class="st1" cx="244.1" cy="604.3" r="3"/>
			<circle class="st1" cx="120.2" cy="642.3" r="3"/>
			<polyline class="st1" points="241.1,604.3 206.6,604.3 169.3,642.3 123.2,642.3 			"/>
		</g>
		<g id="line_x5F_4_x5F_anim">
			<circle id="circle_x5F_4_x5F_start" class="st3" cx="244.1" cy="604.3" r="3"/>
			<circle id="circle_x5F_4_x5F_end" class="st3" cx="120.2" cy="642.3" r="3"/>
			<polyline id="path_x5F_4" class="st3" points="241.1,604.3 206.6,604.3 169.3,642.3 123.2,642.3 			"/>
		</g>
		<g id="symbol_x5F_4">
			<circle class="st4" cx="60.2" cy="639.3" r="50.5"/>
			
				<ellipse transform="matrix(0.9951 -9.925269e-02 9.925269e-02 0.9951 -63.1879 9.1034)" class="st9" cx="59.9" cy="639.6" rx="40.2" ry="40.2"/>
			<ellipse class="st10" cx="60.2" cy="638.9" rx="30" ry="30"/>
			<path class="st11" d="M55.2,620.6h46.4c1.5,0,2.7,1.2,2.7,2.7v29.1c0,1.5-1.2,2.7-2.7,2.7H55.2c-1.5,0-2.7-1.2-2.7-2.7v-29.1
				C52.5,621.9,53.7,620.6,55.2,620.6z"/>
			<polygon class="st12" points="98.4,655.6 90.2,655.6 98.4,665.6 			"/>
			<path class="st13" d="M22.6,612h51c1.8,0,3.2,1.4,3.2,3.2v30.9c0,1.8-1.4,3.2-3.2,3.2h-51c-1.8,0-3.2-1.4-3.2-3.2v-30.9
				C19.5,613.5,20.9,612,22.6,612z"/>
			<circle class="st14" cx="35.2" cy="630.6" r="4.3"/>
			<circle class="st14" cx="48.2" cy="630.6" r="4.3"/>
			<polyline class="st12" points="26.6,649.8 26.6,665.5 26.6,665.5 26.6,665.5 41,649.8 			"/>
			
				<ellipse transform="matrix(0.1327 -0.9912 0.9912 0.1327 -572.1196 607.3469)" class="st15" cx="61" cy="630.6" rx="4.3" ry="4.3"/>
		</g>
	</g>
	<g id="esport">
		<g id="line_x5F_3">
			<line class="st1" x1="350.9" y1="654" x2="351.9" y2="795.2"/>
			<circle class="st1" cx="350.9" cy="651" r="3"/>
			<circle class="st1" cx="351.9" cy="798.3" r="3"/>
		</g>
		<g id="line_x5F_3_x5F_anim">
			<line id="path_x5F_3" class="st3" x1="350.9" y1="654" x2="351.9" y2="795.2"/>
			<circle id="circle_x5F_3_x5F_start" class="st3" cx="350.9" cy="651" r="3"/>
			<circle id="circle_x5F_3_x5F_end" class="st3" cx="351.9" cy="798.3" r="3"/>
		</g>
		<g id="symbol_x5F_3">
			<circle class="st4" cx="351.4" cy="858" r="50.5"/>
			<circle class="st5" cx="351.2" cy="858.3" r="40.2"/>
			<circle class="st6" cx="351.3" cy="857.4" r="30"/>
			
				<ellipse transform="matrix(0.154 -0.9881 0.9881 0.154 -571.2001 1043.5099)" class="st16" cx="323.8" cy="855.3" rx="22" ry="11.3"/>
			<rect x="330" y="835.3" class="st17" width="44" height="27"/>
			<ellipse class="st18" cx="338.4" cy="858.8" rx="6" ry="6.9"/>
			<rect x="337.3" y="835.9" class="st19" width="15.6" height="13.8"/>
			<path class="st12" d="M337.7,853h1.6c2.2,0,4,1.8,4,4v1.2c0,2.2-1.8,4-4,4h-1.6c-2.2,0-4-1.8-4-4V857
				C333.7,854.9,335.4,853,337.7,853z"/>
			<ellipse class="st12" cx="323.6" cy="841" rx="2.4" ry="2.3"/>
			<ellipse class="st12" cx="318.8" cy="846.8" rx="2.4" ry="2.3"/>
			<ellipse class="st12" cx="323.6" cy="851.4" rx="2.4" ry="2.3"/>
			<ellipse class="st12" cx="328.3" cy="846.8" rx="2.4" ry="2.3"/>
			
				<ellipse transform="matrix(0.9897 -0.1435 0.1435 0.9897 -118.8563 63.5009)" class="st20" cx="380.8" cy="855.8" rx="10.9" ry="22"/>
			<rect x="353.3" y="835.4" class="st17" width="21.2" height="27"/>
			<ellipse class="st18" cx="366.6" cy="859" rx="5.7" ry="6.9"/>
			<rect x="352.8" y="836" class="st19" width="14.9" height="13.8"/>
			<path class="st12" d="M367,862.4h-1.2c-2.2,0-4-1.8-4-4v-1.2c0-2.2,1.8-4,4-4h1.2c2.2,0,4,1.8,4,4v1.2
				C371,860.5,369.3,862.4,367,862.4z"/>
			<circle class="st12" cx="380.8" cy="841.3" r="2.3"/>
			<circle class="st12" cx="385.4" cy="847" r="2.3"/>
			<circle class="st12" cx="380.8" cy="851.4" r="2.3"/>
			<circle class="st12" cx="376.3" cy="847" r="2.3"/>
			<rect x="344.8" y="860.4" class="st21" width="16" height="3.4"/>
			<rect x="351.7" y="835.3" class="st21" width="2.3" height="16"/>
		</g>
	</g>
	<g id="internet">
		<g id="line_x5F_2">
			<circle class="st1" cx="412.1" cy="639.6" r="3"/>
			<circle class="st1" cx="444.9" cy="738.6" r="3"/>
			<polyline class="st1" points="441.9,738.6 412.1,698.8 412.1,642.6 			"/>
		</g>
		<g id="line_x5F_2_x5F_anim">
			<circle id="circle_x5F_2_x5F_start" class="st3" cx="412.1" cy="639.6" r="3"/>
			<circle id="circle_x5F_2_x5F_end" class="st3" cx="444.9" cy="738.6" r="3"/>
			<polyline id="path_x5F_2" class="st3" points="412.1,642.6 412.1,698.8 441.9,738.6 			"/>
		</g>
		<g id="symbol_x5F_2">
			<circle class="st4" cx="502.8" cy="741.3" r="50.5"/>
			<circle class="st5" cx="502.5" cy="741.6" r="40.2"/>
			<ellipse class="st22" cx="502.7" cy="740.7" rx="30" ry="30"/>
			<ellipse class="st12" cx="502.9" cy="741.1" rx="32" ry="32.5"/>
			<circle class="st14" cx="502.9" cy="741.8" r="21.1"/>
			<rect x="481.8" y="739.9" class="st23" width="42.2" height="2.4"/>
			<rect x="502.2" y="720.6" class="st23" width="2.4" height="42.2"/>
			<path class="st23" d="M488.6,726.1c0,0,8.6,5.4,14.2,5.4"/>
			<path class="st23" d="M487.5,727.4c0,0,9.2,5.6,15.2,5.8"/>
			<path class="st23" d="M516.8,726.1c0,0-8.6,5.5-14.2,5.5"/>
			<path class="st23" d="M518,727.4c0,0-9.2,5.7-15.3,5.9"/>
			<ellipse class="st23" cx="502.9" cy="741.8" rx="9" ry="21.1"/>
			<path class="st23" d="M518.5,755.1c0,0-9.3-5.1-15.1-4.9"/>
			<path class="st23" d="M519.8,753.8c0,0-9.9-5.3-16.2-5.2"/>
			<path class="st23" d="M488.5,756.1c0,0,9.1-5.8,15.1-6"/>
			<path class="st23" d="M487.1,754.9c0,0,9.8-6.1,16.3-6.4"/>
		</g>
	</g>
	<g id="ehandel">
		<g id="line_x5F_1">
			<circle class="st1" cx="464" cy="562.3" r="3"/>
			<circle class="st1" cx="565" cy="540.3" r="3"/>
			<polyline class="st1" points="562,540.3 491.1,540.3 467,562.3 			"/>
		</g>
		<g id="line_x5F_1_x5F_anim">
			<circle id="circle_x5F_1_x5F_start" class="st3" cx="464" cy="562.3" r="3"/>
			<circle id="circle_x5F_1_x5F_end" class="st3" cx="565" cy="540.3" r="3"/>
			<polyline id="path_x5F_1" class="st3" points="467,562.3 491.1,540.3 562,540.3 			"/>
		</g>
		<g id="symbol_x5F_1">
			<circle class="st4" cx="579.7" cy="482.1" r="50.5"/>
			<circle class="st5" cx="579.3" cy="482.3" r="40.2"/>
			<circle class="st6" cx="579.5" cy="481.6" r="30"/>
			<path class="st8" d="M605.3,462.3l2.3,0.2c0.6,0,1,0.5,1,1.1l-1.7,22.7c0,0.6-0.5,1-1.1,1l-2.3-0.2c-0.6,0-1-0.5-1-1.1l1.7-22.7
				C604.3,462.7,604.8,462.3,605.3,462.3z"/>
			<path class="st8" d="M568.2,486.5l37.5-3.4c0.5,0,1,0.3,1,0.9l0.2,2.6c0,0.5-0.3,1-0.9,1l-37.5,3.4c-0.5,0-1-0.3-1-0.9l-0.2-2.6
				C567.2,487,567.7,486.6,568.2,486.5z"/>
			<path class="st8" d="M559.2,460.9H607c0.5,0,0.9,0.4,0.9,0.9v2.6c0,0.5-0.4,0.9-0.9,0.9h-47.7c-0.5,0-0.9-0.4-0.9-0.9v-2.5
				C558.2,461.2,558.7,460.9,559.2,460.9z"/>
			<path class="st8" d="M607.2,460.9c0,0,1.8,0.3,1.8,1.5c-0.1,1-0.2,2-0.4,3l-3.7-3L607.2,460.9z"/>
			<path class="st8" d="M553.8,448.9l16.6,39.8c0.2,0.5,0,1-0.5,1.2l-2.4,1c-0.5,0.2-1,0-1.2-0.5l-16.6-39.8c-0.2-0.5,0-1,0.5-1.2
				l2.4-1C553,448.1,553.5,448.3,553.8,448.9z"/>
			<path class="st8" d="M543.2,444.6l9.5,3.7c1,0.4,1.5,1.5,1.1,2.6l-0.2,0.5c-0.4,1-1.5,1.5-2.6,1.1l-9.5-3.7
				c-1-0.4-1.5-1.5-1.1-2.6l0.2-0.5C541,444.6,542.2,444.1,543.2,444.6z"/>
			<path class="st8" d="M566,488.7l1,1c0.4,0.4,0.4,1,0,1.4l-7.8,7.8c-0.4,0.4-1,0.4-1.4,0l-1-1c-0.4-0.4-0.4-1,0-1.4l7.8-7.8
				C565,488.3,565.7,488.3,566,488.7z"/>
			<path class="st8" d="M607.5,501.5v0.7c0,0.7-0.6,1.3-1.3,1.3h-42c-0.7,0-1.3-0.6-1.3-1.3v-0.7c0-0.7,0.6-1.3,1.3-1.3h42
				C606.8,500.1,607.5,500.7,607.5,501.5z"/>
			<path class="st8" d="M556.8,496.6l0.3-0.3c0.5-0.6,1.5-0.7,2.1-0.2l5.6,4.8c0.6,0.5,0.7,1.5,0.2,2.1l-0.3,0.3
				c-0.5,0.6-1.5,0.7-2.1,0.2l-5.6-4.8C556.5,498.1,556.3,497.1,556.8,496.6z"/>
			<circle class="st14" cx="563.3" cy="508" r="3.9"/>
			<circle class="st12" cx="563.3" cy="508" r="2.2"/>
			<circle class="st14" cx="600.5" cy="508" r="3.9"/>
			<circle class="st12" cx="600.5" cy="508" r="2.2"/>
			<rect x="574" y="465.7" class="st14" width="1.1" height="20.3"/>
			<rect x="582" y="465.7" class="st14" width="1.1" height="20.3"/>
			<rect x="589.8" y="465.7" class="st14" width="1.1" height="20.3"/>
			<rect x="597.8" y="465.7" class="st14" width="1.1" height="20.3"/>
			<rect x="566.2" y="465.7" class="st14" width="1.1" height="16.9"/>
			<rect x="562.8" y="471.3" class="st14" width="40.6" height="1.1"/>
			<rect x="565" y="479.2" class="st14" width="38.3" height="1.1"/>
		</g>
	</g>
	<g id="programmering">
		<g id="line_x5F_0">
			<circle class="st1" cx="311" cy="269.8" r="3"/>
			<circle class="st1" cx="351.4" cy="411.4" r="3"/>
			<polyline class="st1" points="351.4,408 351.4,354.4 311,314 311,272.8 			"/>
		</g>
		<g id="line_x5F_0_x5F_anim">
			<circle id="circle_x5F_0_x5F_end" class="st3" cx="311" cy="269.8" r="3"/>
			<circle id="circle_x5F_0_x5F_start" class="st3" cx="351.4" cy="411.4" r="3"/>
			<polyline id="path_x5F_0" class="st3" points="351.4,408 351.4,354.4 311,314 311,272.8 			"/>
		</g>
		<g id="symbol_x5F_0">
			<circle class="st4" cx="311.5" cy="211.5" r="50.5"/>
			<circle class="st5" cx="311.2" cy="211.8" r="40.2"/>
			<circle class="st6" cx="311.3" cy="211" r="30"/>
			<path class="st24" d="M279.4,189.3h46.7c0.8,0,1.5,0.7,1.5,1.5v33.1c0,0.8-0.7,1.5-1.5,1.5h-46.7c-0.8,0-1.5-0.7-1.5-1.5v-33.1
				C277.8,190,278.5,189.3,279.4,189.3z"/>
			<rect x="279.6" y="191.3" width="46.2" height="32.4"/>
			<path class="st24" d="M299.8,203h46.7c0.8,0,1.5,0.7,1.5,1.5v33.1c0,0.8-0.7,1.5-1.5,1.5h-46.7c-0.8,0-1.5-0.7-1.5-1.5v-33.1
				C298.3,203.7,298.9,203,299.8,203z"/>
			<rect x="300" y="205" width="46.2" height="32.4"/>
			<polygon class="st25" points="324.3,211.9 326.6,211.9 322,231.6 319.6,231.6 			"/>
			<polygon class="st25" points="317.3,214.2 317.3,218.9 308.1,221.2 317.3,224.7 317.3,229.3 304.6,223.5 304.6,220 			"/>
			<polygon class="st25" points="328.9,214.1 328.9,218.7 338.1,221 328.9,224.5 328.9,229.1 341.6,223.4 341.6,219.9 			"/>
			<rect x="280.9" y="192.8" class="st25" width="1.2" height="1.2"/>
			<rect x="280.9" y="195.2" class="st25" width="1.2" height="1.2"/>
			<rect x="280.9" y="197.5" class="st25" width="1.2" height="1.2"/>
			<rect x="280.9" y="199.8" class="st25" width="1.2" height="1.2"/>
			<rect x="280.9" y="202.1" class="st25" width="1.2" height="1.2"/>
			<rect x="280.9" y="204.4" class="st25" width="1.2" height="1.2"/>
			<rect x="280.9" y="206.7" class="st25" width="1.2" height="1.2"/>
			<rect x="280.9" y="209" class="st25" width="1.2" height="1.2"/>
			<rect x="280.9" y="211.3" class="st25" width="1.2" height="1.2"/>
			<rect x="280.9" y="213.7" class="st25" width="1.2" height="1.2"/>
			<rect x="280.9" y="216" class="st25" width="1.2" height="1.2"/>
			<rect x="280.9" y="218.3" class="st25" width="1.2" height="1.2"/>
			<rect x="280.9" y="220.6" class="st25" width="1.2" height="1.2"/>
			<rect x="284.4" y="192.8" class="st26" width="3.5" height="1.2"/>
			<rect x="284.4" y="195.2" class="st27" width="3.5" height="1.2"/>
			<rect x="284.4" y="218.3" class="st26" width="3.5" height="1.2"/>
			<rect x="291.3" y="202.1" class="st27" width="6.9" height="1.2"/>
			<rect x="284.4" y="216" class="st27" width="3.5" height="1.2"/>
			<rect x="287.8" y="199.8" class="st27" width="9.2" height="1.2"/>
			<rect x="289" y="210.2" class="st27" width="9.2" height="1.2"/>
			<rect x="285.5" y="197.5" class="st26" width="5.8" height="1.2"/>
			<rect x="287.8" y="204.4" class="st26" width="3.5" height="1.2"/>
			<rect x="293.6" y="206.7" class="st26" width="3.5" height="1.2"/>
			<rect x="285.5" y="212.5" class="st26" width="4.6" height="1.2"/>
			<rect x="292.5" y="204.4" class="st28" width="5.8" height="1.2"/>
			<rect x="291.3" y="212.5" class="st28" width="5.8" height="1.2"/>
			<rect x="292.5" y="197.5" class="st28" width="8.1" height="1.2"/>
			<rect x="298.3" y="199.8" class="st28" width="12.7" height="1.2"/>
		</g>
	</g>
</g>
<g id="pile">
	<line class="st1" x1="462" y1="471.6" x2="544.3" y2="373.4"/>
	<line class="st1" x1="544.3" y1="373.4" x2="595.1" y2="378.6"/>
	<line class="st1" x1="598.3" y1="336.7" x2="594" y2="379.5"/>
	<circle class="st1" cx="598.6" cy="333.7" r="3"/>
	<circle class="st1" cx="459.8" cy="473.4" r="3"/>
	<polyline class="st1" points="450.9,604.7 480.2,622 599.2,622 	"/>
	<line class="st1" x1="599.2" y1="622" x2="645.2" y2="671.9"/>
	<line class="st1" x1="645.2" y1="671.9" x2="684.2" y2="671.9"/>
	<circle class="st1" cx="687.2" cy="671.9" r="3"/>
	<circle class="st1" cx="447.9" cy="604.7" r="3"/>
	<line class="st1" x1="270.7" y1="631.3" x2="183.7" y2="717.3"/>
	<line class="st1" x1="183.7" y1="717.3" x2="64.7" y2="717.3"/>
	<line class="st1" x1="65.7" y1="717.3" x2="65.7" y2="758.3"/>
	<circle class="st1" cx="65.7" cy="761.3" r="3"/>
	<circle class="st1" cx="272.7" cy="629.3" r="3"/>
	<line class="st1" x1="226.2" y1="557" x2="112.2" y2="557"/>
	<line class="st1" x1="112.2" y1="557" x2="112.2" y2="523"/>
	<line class="st1" x1="19.2" y1="523" x2="112.2" y2="523"/>
	<circle class="st1" cx="20.2" cy="541" r="3"/>
	<line class="st1" x1="20.2" y1="523" x2="20.2" y2="538"/>
	<circle class="st1" cx="229.2" cy="557" r="3"/>
</g>
<g>
	<line class="st1" x1="190.2" y1="242.3" x2="265.4" y2="334.6"/>
	<line class="st1" x1="265.4" y1="334.6" x2="255.7" y2="401.8"/>
	<line class="st1" x1="255.7" y1="401.8" x2="280.4" y2="432.1"/>
	<circle class="st1" cx="282.3" cy="434.4" r="3"/>
	<circle class="st1" cx="188.3" cy="240" r="3"/>
</g>
<circle class="st1" cx="396.1" cy="420.4" r="3"/>
<line class="st1" x1="397" y1="417.4" x2="446.7" y2="266.8"/>
<line class="st1" x1="446.7" y1="267.1" x2="446.8" y2="207.4"/>
<line class="st1" x1="446" y1="208.4" x2="474.8" y2="208.8"/>
<circle class="st1" cx="474.2" cy="178.1" r="3"/>
<line class="st1" x1="474.2" y1="181.1" x2="474.2" y2="209.9"/>
<circle class="st1" cx="313" cy="647.7" r="3"/>
<line class="st1" x1="311.8" y1="650.7" x2="236.9" y2="797.9"/>
<line class="st1" x1="237.8" y1="797.5" x2="190.6" y2="797.5"/>
<line class="st1" x1="191.6" y1="797.5" x2="191.6" y2="830.8"/>
<circle class="st1" cx="191.6" cy="833.7" r="3"/>
<circle class="st1" cx="431.3" cy="442.1" r="3"/>
<line class="st1" x1="433.1" y1="439.7" x2="529.2" y2="299"/>
<line class="st1" x1="528.8" y1="299.7" x2="549.6" y2="299.7"/>
<line class="st1" x1="549.6" y1="300.7" x2="549.6" y2="254.3"/>
<circle class="st1" cx="549.6" cy="251.4" r="3"/>
</svg>
