<?xml version="1.0" encoding="utf-8"?>
<!-- Generator: Adobe Illustrator 24.1.0, SVG Export Plug-In . SVG Version: 6.00 Build 0)  -->
<svg version="1.1" xmlns="http://www.w3.org/2000/svg" xmlns:xlink="http://www.w3.org/1999/xlink" x="0px" y="0px"
	 viewBox="0 0 1019 1064" style="enable-background:new 0 0 1019 1064;" xml:space="preserve">
<style type="text/css">
	.st0{display:none;fill:#666666;}
	.st1{opacity:0.17;}
	.st2{fill:none;stroke:#808080;stroke-width:2;stroke-miterlimit:10;}
	.st3{fill:#1A1A1A;}
	.st4{fill:#FFFFFF;}
	.st5{fill:#808080;}
	.st6{fill:#333333;}
	.st7{fill:#C1272D;}
	.st8{fill:none;stroke:#E6E6E6;stroke-width:3;stroke-miterlimit:10;}
	.st9{fill:#E6E6E6;stroke:#E6E6E6;stroke-width:3;stroke-miterlimit:10;}
	.st10{fill:#4D4D4D;}
	.st11{fill:#666666;}
	.st12{fill:#CCCCCC;}
	.st13{fill:#22B573;}
	.st14{fill:#A67C52;}
	.st15{fill:#D4145A;}
	.st16{fill:#F7931E;}
	.st17{fill:#662D91;}
	.st18{fill:#FF0000;}
</style>
<g id="Layer_1">
	
		<image style="overflow:visible;opacity:0;" width="2530" height="1272" xlink:href="../../../../../../Screenshot 2020-03-18 at 09.11.36.png"  transform="matrix(0.5 0 0 0.5 -122 415)">
	</image>
</g>
<g id="shaddow">
	<rect x="-28" y="-14" class="st0" width="1083" height="1111"/>
	<ellipse class="st1" cx="501" cy="1017" rx="475" ry="28"/>
</g>
<g id="left_x5F_wheel">
	<g>
		<g>
			<g>
				<line class="st2" x1="157.6" y1="679.2" x2="243.3" y2="999.9"/>
				<line class="st2" x1="178.6" y1="671.2" x2="264.3" y2="991.9"/>
			</g>
			<g>
				<line class="st2" x1="283.8" y1="687.3" x2="117.6" y2="974.7"/>
				<line class="st2" x1="304.3" y1="696.5" x2="138.1" y2="983.8"/>
			</g>
			<g>
				<line class="st2" x1="367.3" y1="782.2" x2="46.6" y2="867.9"/>
				<line class="st2" x1="375.3" y1="803.2" x2="54.6" y2="888.9"/>
			</g>
			<g>
				<line class="st2" x1="359.2" y1="908.4" x2="71.8" y2="742.2"/>
				<line class="st2" x1="350" y1="928.9" x2="62.7" y2="762.7"/>
			</g>
		</g>
		<g>
			<path class="st3" d="M210.9,670.6c44.1,0,85.5,17.2,116.7,48.3c31.2,31.2,48.3,72.6,48.3,116.7c0,44.1-17.2,85.5-48.3,116.7
				c-31.2,31.2-72.6,48.3-116.7,48.3s-85.5-17.2-116.7-48.3c-31.2-31.2-48.3-72.6-48.3-116.7c0-44.1,17.2-85.5,48.3-116.7
				C125.4,687.7,166.9,670.6,210.9,670.6 M210.9,650.6c-102.2,0-185,82.8-185,185s82.8,185,185,185s185-82.8,185-185
				S313.1,650.6,210.9,650.6L210.9,650.6z"/>
		</g>
		<g>
			<path class="st4" d="M210.9,675.7c42.7,0,82.9,16.6,113.1,46.8c30.2,30.2,46.8,70.4,46.8,113.1c0,42.7-16.6,82.9-46.8,113.1
				c-30.2,30.2-70.4,46.8-113.1,46.8s-82.9-16.6-113.1-46.8C67.7,918.4,51,878.3,51,835.6c0-42.7,16.6-82.9,46.8-113.1
				C128.1,692.3,168.2,675.7,210.9,675.7 M210.9,669.7C119.3,669.7,45,743.9,45,835.6c0,91.6,74.3,165.9,165.9,165.9
				s165.9-74.3,165.9-165.9C376.8,743.9,302.6,669.7,210.9,669.7L210.9,669.7z"/>
		</g>
		<g>
			<path class="st5" d="M210.9,798.4v2c19.4,0,35.2,15.8,35.2,35.2c0,9.4-3.7,18.2-10.3,24.9s-15.5,10.3-24.9,10.3
				c-19.4,0-35.2-15.8-35.2-35.2c0-9.4,3.7-18.2,10.3-24.9c6.6-6.6,15.5-10.3,24.9-10.3V798.4 M210.9,798.4
				c-20.5,0-37.2,16.6-37.2,37.2c0,20.5,16.6,37.2,37.2,37.2s37.2-16.6,37.2-37.2C248.1,815,231.5,798.4,210.9,798.4L210.9,798.4z"
				/>
		</g>
	</g>
</g>
<g id="right_x5F_wheel">
	<g>
		<g>
			<g>
				<line class="st2" x1="737.6" y1="678.2" x2="823.3" y2="998.9"/>
				<line class="st2" x1="758.6" y1="670.2" x2="844.3" y2="990.9"/>
			</g>
			<g>
				<line class="st2" x1="863.8" y1="686.3" x2="697.6" y2="973.7"/>
				<line class="st2" x1="884.3" y1="695.5" x2="718.1" y2="982.8"/>
			</g>
			<g>
				<line class="st2" x1="947.3" y1="781.2" x2="626.6" y2="866.9"/>
				<line class="st2" x1="955.3" y1="802.2" x2="634.6" y2="887.9"/>
			</g>
			<g>
				<line class="st2" x1="939.2" y1="907.4" x2="651.8" y2="741.2"/>
				<line class="st2" x1="930" y1="927.9" x2="642.7" y2="761.7"/>
			</g>
		</g>
		<g>
			<path class="st3" d="M790.9,669.6c44.1,0,85.5,17.2,116.7,48.3c31.2,31.2,48.3,72.6,48.3,116.7c0,44.1-17.2,85.5-48.3,116.7
				c-31.2,31.2-72.6,48.3-116.7,48.3s-85.5-17.2-116.7-48.3c-31.2-31.2-48.3-72.6-48.3-116.7c0-44.1,17.2-85.5,48.3-116.7
				C705.4,686.7,746.9,669.6,790.9,669.6 M790.9,649.6c-102.2,0-185,82.8-185,185s82.8,185,185,185s185-82.8,185-185
				S893.1,649.6,790.9,649.6L790.9,649.6z"/>
		</g>
		<g>
			<path class="st4" d="M790.9,674.7c42.7,0,82.9,16.6,113.1,46.8c30.2,30.2,46.8,70.4,46.8,113.1c0,42.7-16.6,82.9-46.8,113.1
				c-30.2,30.2-70.4,46.8-113.1,46.8c-42.7,0-82.9-16.6-113.1-46.8c-30.2-30.2-46.8-70.4-46.8-113.1c0-42.7,16.6-82.9,46.8-113.1
				C708.1,691.3,748.2,674.7,790.9,674.7 M790.9,668.7c-91.6,0-165.9,74.3-165.9,165.9s74.3,165.9,165.9,165.9
				s165.9-74.3,165.9-165.9C956.8,742.9,882.6,668.7,790.9,668.7L790.9,668.7z"/>
		</g>
		<g>
			<path class="st5" d="M790.9,797.4v2c19.4,0,35.2,15.8,35.2,35.2c0,9.4-3.7,18.2-10.3,24.9c-6.6,6.6-15.5,10.3-24.9,10.3
				c-19.4,0-35.2-15.8-35.2-35.2c0-9.4,3.7-18.2,10.3-24.9c6.6-6.6,15.5-10.3,24.9-10.3V797.4 M790.9,797.4
				c-20.5,0-37.2,16.6-37.2,37.2c0,20.5,16.6,37.2,37.2,37.2c20.5,0,37.2-16.6,37.2-37.2S811.5,797.4,790.9,797.4L790.9,797.4z"/>
		</g>
	</g>
</g>
<g id="back_x5F_leg">
	<g>
		<path id="thigh" class="st6" d="M517.2,665.9l-1.5,1.1c-5.1,3.5-12.7,2.8-16.9-1.5L341.4,523.2c-4.2-4.3,20-6.7,25-10.2l1.5-1.1
			c5.1-3.5,23.6-1.4,27.8,2.9l123,136.8C523,656,522.3,662.4,517.2,665.9z"/>
		<path id="calf" class="st6" d="M500.5,875.1l-2-0.1c-6.6-0.3-11.8-5.4-11.5-11.3l9.7-203.9c0.3-5.9,5.9-10.4,12.5-10.1l2,0.1
			c6.6,0.3,11.8,5.4,11.5,11.3L513,865C512.7,870.8,507.1,875.4,500.5,875.1z"/>
		<polygon id="foot" class="st6" points="534.1,875.6 471.3,879 470.6,871.4 533.4,868 		"/>
	</g>
</g>
<g id="body">
	<g>
		<path class="st7" d="M795,824c-52-31-58-74-58-74l-27-84l-32-105l-15-49c34-22,8-37,8-37H569c-14,14,0,24,0,24h59h18
			c-7,3-8,14-8,14l9,32l12,37l-276,2l-17-56l-21,3l17,62l-81,121c0,0-71,99-79,113s5,18,5,18l240,40c11,4,20,0,20,0l69-75l147-155
			l32,100c14,64,75,91,75,91C813,838,795,824,795,824z M230,824l140-203l73,240L230,824z M464,852l-75-246h277l9,24L464,852z"/>
	</g>
	<circle class="st8" cx="457" cy="873" r="44"/>
	<circle class="st8" cx="211.5" cy="834.5" r="16.3"/>
	<line class="st8" x1="211.5" y1="818.5" x2="457.5" y2="828.5"/>
	<line class="st8" x1="211.5" y1="850.5" x2="450.5" y2="916.5"/>
	<ellipse class="st9" cx="357.5" cy="519.5" rx="69" ry="13"/>
</g>
<g id="Layer_9">
	<path class="st6" d="M485.3,404.6l-93.8-122.1c-3.7-4.8-2.8-11.7,2-15.4v0c4.8-3.7,11.7-2.8,15.4,2l93.8,122.1
		c3.7,4.8,2.8,11.7-2,15.4v0C495.9,410.3,489,409.4,485.3,404.6z"/>
	<path class="st6" d="M572.5,476.4l-81.1-61.9c-4.8-3.7-5.7-10.6-2.1-15.4l0,0c3.7-4.8,10.6-5.7,15.4-2.1l81.1,61.9
		c4.8,3.7,5.7,10.6,2.1,15.4v0C584.3,479.2,577.3,480.1,572.5,476.4z"/>
	<path class="st10" d="M459,199H343c-6.6,0-12,5.4-12,12v296c0,6.6,5.4,12,12,12l94-2c6.6,0,12-5.4,12-12l-6-138l14-38l14-118
		C471,204.4,465.6,199,459,199z"/>
	<path class="st11" d="M530.8,362l-131.5-80.1c-5.2-3.1-6.8-9.9-3.7-15.1h0c3.1-5.2,9.9-6.8,15.1-3.7l131.5,80.1
		c5.2,3.1,6.8,9.9,3.7,15.1l0,0C542.7,363.5,535.9,365.1,530.8,362z"/>
	<path class="st11" d="M610.2,283.1L544.3,361c-3.9,4.6-10.9,5.2-15.5,1.3v0c-4.6-3.9-5.2-10.9-1.3-15.5l65.9-77.9
		c3.9-4.6,10.9-5.2,15.5-1.3l0,0C613.5,271.5,614.1,278.5,610.2,283.1z"/>
	<path d="M613,214.9L613,214.9c-1.8-0.7-3.8,0.2-4.5,2l-20.4,53.2c-0.7,1.8,0.2,3.8,2,4.5l0,0c1.8,0.7,3.8-0.2,4.5-2l20.4-53.2
		C615.7,217.6,614.8,215.6,613,214.9z"/>
	<ellipse class="st11" cx="442.5" cy="136.5" rx="71.5" ry="83.5"/>
	<circle class="st4" cx="483" cy="111" r="12"/>
	<circle cx="489.5" cy="117.5" r="4.5"/>
	<path d="M501.6,183.6c0,0-20.6-1.6-26.6-19.6l33.1,5.8C508.1,169.8,506.1,175.1,501.6,183.6z"/>
</g>
<g id="front_x5F_leg">
	<g>
		<path id="thigh_1_" class="st11" d="M482.7,686.5l-1.7,0.9c-5.7,2.9-13.1,1.3-16.4-3.6L351.8,528.5c-3.3-4.9,8.2-12.7,14-15.6
			l1.7-0.9c5.7-2.9,35.6,1,38.9,5.9l80.9,154.3C490.5,677.1,488.5,683.6,482.7,686.5z"/>
		<path id="calf_1_" class="st11" d="M422.6,897.3l-2-0.3c-6.4-1.1-10.6-6.6-9.1-12.2l52.4-207.4c1.4-5.6,7.9-9.3,14.3-8.2l2,0.3
			c6.4,1.1,10.6,6.6,9.1,12.2l-52.4,207.4C435.4,894.7,429,898.4,422.6,897.3z"/>
		<polygon id="foot_1_" points="455.7,901.9 393,897.7 393.9,889.9 456.5,894.1 		"/>
	</g>
</g>
<g id="phone">
</g>
</svg>
