<?xml version="1.0" encoding="utf-8"?>
<!-- Generator: Adobe Illustrator 24.1.0, SVG Export Plug-In . SVG Version: 6.00 Build 0)  -->
<svg version="1.1" xmlns="http://www.w3.org/2000/svg" xmlns:xlink="http://www.w3.org/1999/xlink" x="0px" y="0px"
	 viewBox="0 0 362 659" style="enable-background:new 0 0 362 659;" xml:space="preserve">
<style type="text/css">
	.st0{display:none;fill:#666666;}
	.st1{opacity:0.17;}
	.st2{fill:none;stroke:#808080;stroke-width:2;stroke-miterlimit:10;}
	.st3{fill:#1A1A1A;}
	.st4{fill:#FFFFFF;}
	.st5{fill:#808080;}
	.st6{fill:#333333;}
	.st7{fill:#C1272D;}
	.st8{fill:none;stroke:#E6E6E6;stroke-width:3;stroke-miterlimit:10;}
	.st9{fill:#E6E6E6;stroke:#E6E6E6;stroke-width:3;stroke-miterlimit:10;}
	.st10{fill:#4D4D4D;}
	.st11{fill:#666666;}
	.st12{fill:#CCCCCC;}
	.st13{fill:#22B573;}
	.st14{fill:#A67C52;}
	.st15{fill:#D4145A;}
	.st16{fill:#F7931E;}
	.st17{fill:#662D91;}
	.st18{fill:#FF0000;}
	.st19{fill:#FFFF00;}
	.st20{font-family:'Montserrat-Black';}
	.st21{font-size:22px;}
	.st22{font-family:'Montserrat-Regular';}
	.st23{font-size:19px;}
</style>
<g id="Layer_1">
</g>
<g id="shaddow">
</g>
<g id="left_x5F_wheel">
</g>
<g id="right_x5F_wheel">
</g>
<g id="back_x5F_leg">
</g>
<g id="body">
</g>
<g id="Layer_9">
</g>
<g id="front_x5F_leg">
</g>
<g id="phone">
	<path d="M350.3,0.3H11.5c-6.6,0-12,5.4-12,12V647c0,6.6,5.4,12,12,12h338.8c6.6,0,12-5.4,12-12V12.3C362.3,5.7,356.9,0.3,350.3,0.3
		z"/>
	<path class="st4" d="M345.8,4.9H16c-6.6,0-12,5.4-12,12v625.8c0,6.6,5.4,12,12,12h329.9c6.6,0,12-5.4,12-12V16.9
		C357.8,10.3,352.4,4.9,345.8,4.9z"/>
	<path class="st12" d="M252,647H109.8c-1.9,0-3.5-1.6-3.5-3.5v0c0-1.9,1.6-3.5,3.5-3.5H252c1.9,0,3.5,1.6,3.5,3.5v0
		C255.5,645.4,254,647,252,647z"/>
	<g>
		<path class="st7" d="M74,101H34c-6.6,0-12-5.4-12-12V49c0-6.6,5.4-12,12-12h40c6.6,0,12,5.4,12,12v40C86,95.6,80.6,101,74,101z"/>
		<path class="st7" d="M158.7,101h-40c-6.6,0-12-5.4-12-12V49c0-6.6,5.4-12,12-12h40c6.6,0,12,5.4,12,12v40
			C170.7,95.6,165.3,101,158.7,101z"/>
		<path class="st7" d="M243.3,101h-40c-6.6,0-12-5.4-12-12V49c0-6.6,5.4-12,12-12h40c6.6,0,12,5.4,12,12v40
			C255.3,95.6,249.9,101,243.3,101z"/>
		<path class="st7" d="M328,101h-40c-6.6,0-12-5.4-12-12V49c0-6.6,5.4-12,12-12h40c6.6,0,12,5.4,12,12v40
			C340,95.6,334.6,101,328,101z"/>
	</g>
	<g>
		<path class="st13" d="M74,183.6H34c-6.6,0-12-5.4-12-12v-40c0-6.6,5.4-12,12-12h40c6.6,0,12,5.4,12,12v40
			C86,178.2,80.6,183.6,74,183.6z"/>
		<path class="st13" d="M158.7,183.6h-40c-6.6,0-12-5.4-12-12v-40c0-6.6,5.4-12,12-12h40c6.6,0,12,5.4,12,12v40
			C170.7,178.2,165.3,183.6,158.7,183.6z"/>
		<path class="st13" d="M243.3,183.6h-40c-6.6,0-12-5.4-12-12v-40c0-6.6,5.4-12,12-12h40c6.6,0,12,5.4,12,12v40
			C255.3,178.2,249.9,183.6,243.3,183.6z"/>
		<path class="st13" d="M328,183.6h-40c-6.6,0-12-5.4-12-12v-40c0-6.6,5.4-12,12-12h40c6.6,0,12,5.4,12,12v40
			C340,178.2,334.6,183.6,328,183.6z"/>
	</g>
	<g>
		<path class="st14" d="M74,266.2H34c-6.6,0-12-5.4-12-12v-40c0-6.6,5.4-12,12-12h40c6.6,0,12,5.4,12,12v40
			C86,260.8,80.6,266.2,74,266.2z"/>
		<path class="st14" d="M158.7,266.2h-40c-6.6,0-12-5.4-12-12v-40c0-6.6,5.4-12,12-12h40c6.6,0,12,5.4,12,12v40
			C170.7,260.8,165.3,266.2,158.7,266.2z"/>
		<path class="st14" d="M243.3,266.2h-40c-6.6,0-12-5.4-12-12v-40c0-6.6,5.4-12,12-12h40c6.6,0,12,5.4,12,12v40
			C255.3,260.8,249.9,266.2,243.3,266.2z"/>
		<path class="st14" d="M328,266.2h-40c-6.6,0-12-5.4-12-12v-40c0-6.6,5.4-12,12-12h40c6.6,0,12,5.4,12,12v40
			C340,260.8,334.6,266.2,328,266.2z"/>
	</g>
	<g>
		<path class="st15" d="M74,348.8H34c-6.6,0-12-5.4-12-12v-40c0-6.6,5.4-12,12-12h40c6.6,0,12,5.4,12,12v40
			C86,343.4,80.6,348.8,74,348.8z"/>
		<path class="st15" d="M158.7,348.8h-40c-6.6,0-12-5.4-12-12v-40c0-6.6,5.4-12,12-12h40c6.6,0,12,5.4,12,12v40
			C170.7,343.4,165.3,348.8,158.7,348.8z"/>
		<path class="st15" d="M243.3,348.8h-40c-6.6,0-12-5.4-12-12v-40c0-6.6,5.4-12,12-12h40c6.6,0,12,5.4,12,12v40
			C255.3,343.4,249.9,348.8,243.3,348.8z"/>
		<path class="st15" d="M328,348.8h-40c-6.6,0-12-5.4-12-12v-40c0-6.6,5.4-12,12-12h40c6.6,0,12,5.4,12,12v40
			C340,343.4,334.6,348.8,328,348.8z"/>
	</g>
	<g>
		<path class="st16" d="M74,431.4H34c-6.6,0-12-5.4-12-12v-40c0-6.6,5.4-12,12-12h40c6.6,0,12,5.4,12,12v40
			C86,426,80.6,431.4,74,431.4z"/>
		<path class="st16" d="M158.7,431.4h-40c-6.6,0-12-5.4-12-12v-40c0-6.6,5.4-12,12-12h40c6.6,0,12,5.4,12,12v40
			C170.7,426,165.3,431.4,158.7,431.4z"/>
		<path class="st16" d="M243.3,431.4h-40c-6.6,0-12-5.4-12-12v-40c0-6.6,5.4-12,12-12h40c6.6,0,12,5.4,12,12v40
			C255.3,426,249.9,431.4,243.3,431.4z"/>
		<path class="st16" d="M328,431.4h-40c-6.6,0-12-5.4-12-12v-40c0-6.6,5.4-12,12-12h40c6.6,0,12,5.4,12,12v40
			C340,426,334.6,431.4,328,431.4z"/>
	</g>
	<g>
		<path class="st17" d="M74,514H34c-6.6,0-12-5.4-12-12v-40c0-6.6,5.4-12,12-12h40c6.6,0,12,5.4,12,12v40C86,508.6,80.6,514,74,514z
			"/>
		<path class="st17" d="M158.7,514h-40c-6.6,0-12-5.4-12-12v-40c0-6.6,5.4-12,12-12h40c6.6,0,12,5.4,12,12v40
			C170.7,508.6,165.3,514,158.7,514z"/>
		<path class="st17" d="M243.3,514h-40c-6.6,0-12-5.4-12-12v-40c0-6.6,5.4-12,12-12h40c6.6,0,12,5.4,12,12v40
			C255.3,508.6,249.9,514,243.3,514z"/>
		<path class="st17" d="M328,514h-40c-6.6,0-12-5.4-12-12v-40c0-6.6,5.4-12,12-12h40c6.6,0,12,5.4,12,12v40
			C340,508.6,334.6,514,328,514z"/>
	</g>
	<g>
		<path d="M74,614H34c-6.6,0-12-5.4-12-12v-40c0-6.6,5.4-12,12-12h40c6.6,0,12,5.4,12,12v40C86,608.6,80.6,614,74,614z"/>
		<path d="M158.7,614h-40c-6.6,0-12-5.4-12-12v-40c0-6.6,5.4-12,12-12h40c6.6,0,12,5.4,12,12v40C170.7,608.6,165.3,614,158.7,614z"
			/>
		<path d="M243.3,614h-40c-6.6,0-12-5.4-12-12v-40c0-6.6,5.4-12,12-12h40c6.6,0,12,5.4,12,12v40C255.3,608.6,249.9,614,243.3,614z"
			/>
		<path d="M328,614h-40c-6.6,0-12-5.4-12-12v-40c0-6.6,5.4-12,12-12h40c6.6,0,12,5.4,12,12v40C340,608.6,334.6,614,328,614z"/>
	</g>
	<g id="push_x5F_message">
		<path class="st18" d="M340,124.2H25c-6.6,0-12-5.4-12-12V40c0-6.6,5.4-12,12-12h315c6.6,0,12,5.4,12,12v72.2
			C352,118.8,346.6,124.2,340,124.2z"/>
		<text transform="matrix(1 0 0 1 29.2236 60.564)" class="st19 st20 st21">BREAKING</text>
		<text transform="matrix(1 0 0 1 29.1855 84.8804)"><tspan x="0" y="0" class="st19 st22 st23">Det er nu ulovligt at cykle</tspan><tspan x="0" y="22.8" class="st19 st22 st23">med sin mobil i hånden.</tspan></text>
	</g>
	<path d="M243.5,17H118.3c-6.6,0-12-5.4-12-12V4h149.3v1C255.5,11.6,250.1,17,243.5,17z"/>
</g>
</svg>
