<?xml version="1.0" encoding="utf-8"?>
<!-- Generator: Adobe Illustrator 24.1.0, SVG Export Plug-In . SVG Version: 6.00 Build 0)  -->
<svg version="1.1" id="Layer_1" xmlns="http://www.w3.org/2000/svg" xmlns:xlink="http://www.w3.org/1999/xlink" x="0px" y="0px"
	 viewBox="0 0 682.5 744.5" style="enable-background:new 0 0 682.5 744.5;" xml:space="preserve">
<style type="text/css">
	.st0{fill:#7AB2F4;}
	.st1{fill:none;stroke:#000000;stroke-width:2;stroke-miterlimit:10;}
	.st2{fill:#177219;}
	.st3{opacity:0.36;fill:none;stroke:#000000;stroke-width:2;stroke-miterlimit:10;enable-background:new    ;}
	.st4{opacity:0.47;fill:none;stroke:#000000;stroke-width:2;stroke-miterlimit:10;enable-background:new    ;}
	.st5{opacity:0.59;fill:none;stroke:#000000;stroke-width:2;stroke-miterlimit:10;enable-background:new    ;}
	.st6{stroke:#000000;stroke-width:0.5;stroke-miterlimit:10;}
	.st7{fill:#C1BFBF;stroke:#000000;stroke-miterlimit:10;}
	.st8{fill:none;stroke:#000000;stroke-miterlimit:10;}
	.st9{fill:#EACACA;stroke:#000000;stroke-miterlimit:10;}
	.st10{stroke:#000000;stroke-miterlimit:10;}
	.st11{fill:#020100;stroke:#020100;stroke-miterlimit:10;}
	.st12{stroke:#020100;stroke-miterlimit:10;}
	.st13{fill:none;stroke:#FFFFFF;stroke-miterlimit:10;}
	.st14{fill:#FCFCFC;}
	.st15{fill:#020100;}
	.st16{fill:#56B3CC;}
	.st17{fill:none;stroke:#000000;stroke-width:0.5;stroke-miterlimit:10;}
	.st18{fill:#47ABE2;}
	.st19{fill:#FFFFFF;}
	.st20{fill:#E53042;}
	.st21{fill:#326CBF;}
	.st22{fill:#26C42A;}
</style>
<g id="jorden">
	<ellipse class="st0" cx="355.2" cy="418.3" rx="108.1" ry="108.8"/>
	<path class="st1" d="M317,355.4"/>
	<path class="st2" d="M436.1,346.1l7.4,9.3l7.8,12.8l4.3,9.4l2.2,6l3.4,12.5l0.9,4.7l1.2,10.7v10.8c0,0-2.1-1.7-3.1,0.3s-6,5-7,4
		c0,0-6,2-10-6s-21,3-21,3s-14,4-22-8s-3-20-5-29s-16-22-21-21s-6-26,17-22s27-4,27-4L436.1,346.1z"/>
	<path class="st2" d="M305.4,321.7l6.8-3.2l4.8-2l8.5-2.8l2.6-0.7l10-2.1c0,0,13.5-1.7,13.5,5.3s3,11-3,16s-19,4-23,10s0,12,3,13
		s3,2,0,8s-19,4-19,0s-6-11-6-17s5-8,6-12S305.4,321.7,305.4,321.7z"/>
	<path class="st2" d="M345.5,357.1c0,0-9,4-6,8s10,6,11,4s6-5,5-7s-2,2-5,1S345.5,357.1,345.5,357.1z"/>
	<path class="st2" d="M254.6,378.4l3.4-7.8l3.8-7.1l1.3-2.2l6.1-9c0,0,14.3,2.8,14.3,8.8s-1,13-4,17s-4,15-10,16s-12,2-14,0
		s-4.5-4.8-4.5-4.8L254.6,378.4z"/>
	<path class="st2" d="M353.5,439.1c0,0-9-7-5-15s3-7,10-10s13-12,11-14s13-9,12-1c6.3,9.8,9.1,21.4,8,33c-2,19,11,12,11,12
		s15-2,24,1s3,14,3,14s-23,22-27,30s-21,26-26,16s-1-17,0-30s-4-26-10-26S353.5,439.1,353.5,439.1z"/>
	<path class="st2" d="M250.2,444.5l1.4,5.1l2,6.1l2.8,7.1l2.9,6l2.6,4.8l2.5,4l3,4.5l5.9,7.5l6.7,7.2l3.4,3.2c0,0,15.1-3.7,18.1-9.7
		s10-8,7-14s-3-8-6-8s-8-1-7-3s2-5,0-6s-5-2-5-7s3-4,2-11s-5-13-7-13s-6,1-6-4s-1-11-5-9c0,0-7-5-14,0c-3.5,2.4-6.9,5.1-10,8
		c0,0-2,6-2,7s1,11.3,1,11.3L250.2,444.5z"/>
	<path class="st2" d="M345.6,463.8c0,0-3.8-9.1-7.8-6.2c-4.1,2.9-6.3,9.8-4.3,10.9c2,1.1,4.8,6.1,6.9,5.2s-2-2.1-0.9-5
		S345.6,463.8,345.6,463.8z"/>
</g>
<g id="arbejde">
	<g id="line_x5F_5">
		<circle class="st1" cx="248" cy="331.8" r="3"/>
		<line class="st1" x1="246" y1="332.8" x2="175" y2="332.8"/>
		<line class="st1" x1="148" y1="305.8" x2="175" y2="332.8"/>
		<line class="st1" x1="148" y1="282.8" x2="148" y2="305.8"/>
		<circle class="st1" cx="148" cy="279.8" r="3"/>
	</g>
	<g id="symbol_x5F_5" class="symbol" data-number="5">
		<circle class="st3" cx="147.4" cy="218.9" r="50.5"/>
		<circle class="st4" cx="147.1" cy="219.1" r="40.2"/>
		<circle class="st5" cx="147.3" cy="218.4" r="30"/>
		<path class="st6" d="M159.3,252.1h11.8c1.1,0,2,0.9,2,2v0.5c0,1.1-0.9,2-2,2h-11.8c-1.1,0-2-0.9-2-2v-0.5
			C157.3,253,158.2,252.1,159.3,252.1z"/>
		<rect x="162.9" y="223.9" class="st6" width="4.5" height="28.2"/>
		<path class="st6" d="M149.9,219.4h30.4c0.3,0,0.6,0.3,0.6,0.6v3.3c0,0.3-0.3,0.6-0.6,0.6h-30.4c-0.3,0-0.6-0.3-0.6-0.6v-3.3
			C149.4,219.6,149.6,219.4,149.9,219.4z"/>
		<path class="st6" d="M177.1,194.4l3.2,0.6c0.3,0.1,0.6,0.4,0.5,0.7l-4.1,20.1c-0.1,0.3-0.4,0.6-0.7,0.5l-3.2-0.6
			c-0.3-0.1-0.6-0.4-0.5-0.7l4.1-20.1C176.4,194.6,176.8,194.4,177.1,194.4z"/>
		<path class="st6" d="M176.5,213.2v3.3c0,0.3-0.3,0.6-0.6,0.6h-21.4c-0.3,0-0.6-0.3-0.6-0.6v-3.3c0-0.3,0.3-0.6,0.6-0.6h21.4
			C176.2,212.6,176.5,212.9,176.5,213.2z"/>
		<circle class="st6" cx="130.2" cy="191.1" r="6.8"/>
		<path class="st6" d="M124.5,202.4h6.8c1.2,0,2.2,1,2.2,2.2V225c0,1.2-1,2.2-2.2,2.2h-6.8c-1.2,0-2.2-1-2.2-2.2v-20.4
			C122.3,203.4,123.3,202.4,124.5,202.4z"/>
		<rect x="131.3" y="223.9" class="st6" width="11.3" height="3.4"/>
		<path class="st6" d="M143,223.9h2.6c0.2,0,0.4,0.2,0.4,0.4v2.6c0,0.2-0.2,0.4-0.4,0.4H143c-0.2,0-0.4-0.2-0.4-0.4v-2.6
			C142.6,224,142.8,223.9,143,223.9z"/>
		<path class="st6" d="M144.1,225h0.4c0.8,0,1.5,0.7,1.5,1.5v26.4c0,0.8-0.7,1.5-1.5,1.5h-0.4c-0.8,0-1.5-0.7-1.5-1.5v-26.4
			C142.6,225.7,143.3,225,144.1,225z"/>
		<path class="st6" d="M131.3,203.6l0.4-0.2c0.9-0.5,2-0.2,2.5,0.7l3.5,6.1c0.5,0.9,0.2,2-0.7,2.5l-0.4,0.2c-0.9,0.5-2,0.2-2.5-0.7
			l-3.5-6.1C130.1,205.2,130.4,204.1,131.3,203.6z"/>
		<path class="st6" d="M135.7,210.3h12.7c0.6,0,1,0.4,1,1v1.4c0,0.6-0.4,1-1,1h-12.7c-0.6,0-1-0.4-1-1v-1.4
			C134.7,210.8,135.1,210.3,135.7,210.3z"/>
		<path class="st6" d="M117.5,209.2h0.5c1.1,0,2,0.9,2,2v43.4c0,1.1-0.9,2-2,2h-0.5c-1.1,0-2-0.9-2-2v-43.4
			C115.5,210.1,116.4,209.2,117.5,209.2z"/>
		<path class="st6" d="M137.8,229.5h0.5c1.1,0,2,0.9,2,2v23.1c0,1.1-0.9,2-2,2h-0.5c-1.1,0-2-0.9-2-2v-23.1
			C135.8,230.4,136.7,229.5,137.8,229.5z"/>
		<rect x="120" y="229.5" class="st6" width="18.1" height="4.5"/>
	</g>
</g>
<g id="kommunikation">
	<g id="line_x5F_4">
		<circle class="st1" cx="235.4" cy="444.5" r="3"/>
		<circle class="st1" cx="111.4" cy="482.5" r="3"/>
		<line class="st1" x1="182.4" y1="444.5" x2="232.4" y2="444.5"/>
		<line class="st1" x1="114.4" y1="482.5" x2="146.4" y2="482.5"/>
		<line class="st1" x1="182.4" y1="444.5" x2="145.4" y2="482.5"/>
	</g>
	<g id="symbol_x5F_4" class="symbol" data-number="4">
		<circle class="st3" cx="51.5" cy="479.5" r="50.5"/>
		
			<ellipse transform="matrix(3.327795e-02 -0.9994 0.9994 3.327795e-02 -430.0085 514.9955)" class="st4" cx="51.2" cy="479.8" rx="40.2" ry="40.2"/>
		
			<ellipse transform="matrix(4.531441e-02 -0.999 0.999 4.531441e-02 -429.5257 508.6689)" class="st5" cx="51.4" cy="479.1" rx="30" ry="30"/>
		<path class="st7" d="M46.4,460.8h46.4c1.5,0,2.7,1.2,2.7,2.7v29.1c0,1.5-1.2,2.7-2.7,2.7H46.4c-1.5,0-2.7-1.2-2.7-2.7v-29.1
			C43.7,462,44.9,460.8,46.4,460.8z"/>
		<line class="st8" x1="79.6" y1="495.2" x2="89.7" y2="505.3"/>
		<line class="st8" x1="89.7" y1="495.2" x2="89.7" y2="505.3"/>
		<path class="st9" d="M13.9,452.1h51c1.8,0,3.2,1.4,3.2,3.2v30.9c0,1.8-1.4,3.2-3.2,3.2h-51c-1.8,0-3.2-1.4-3.2-3.2v-30.9
			C10.7,453.6,12.1,452.1,13.9,452.1z"/>
		<circle class="st8" cx="26.5" cy="470.8" r="4.3"/>
		<circle class="st8" cx="39.4" cy="470.8" r="4.3"/>
		<circle class="st8" cx="52.3" cy="470.8" r="4.3"/>
		<line class="st8" x1="17.9" y1="505.3" x2="17.9" y2="489.5"/>
		<line class="st8" x1="32.2" y1="489.5" x2="17.9" y2="505.3"/>
		<line class="st8" x1="17.9" y1="489.5" x2="32.2" y2="489.5"/>
	</g>
</g>
<g id="esport">
	<g id="line_x5F_3">
		<line class="st1" x1="349.4" y1="537.2" x2="350.4" y2="630.2"/>
		<circle class="st1" cx="349.4" cy="534.2" r="3"/>
		<circle class="st1" cx="350.4" cy="633.2" r="3"/>
	</g>
	<g id="symbol_x5F_3" class="symbol" data-number="3">
		<circle class="st3" cx="349.9" cy="693" r="50.5"/>
		<circle class="st4" cx="349.6" cy="693.2" r="40.2"/>
		<circle class="st5" cx="349.8" cy="692.5" r="30"/>
		
			<ellipse transform="matrix(0.154 -0.9881 0.9881 0.154 -409.6674 902.1696)" class="st10" cx="322" cy="690.3" rx="22" ry="11.3"/>
		<rect x="328.5" y="670.3" class="st11" width="44" height="27"/>
		<ellipse class="st12" cx="336.9" cy="693.8" rx="6" ry="6.9"/>
		<rect x="335.7" y="670.9" class="st13" width="15.6" height="13.8"/>
		<path class="st14" d="M336.1,688.1h1.6c2.2,0,4,1.8,4,4v1.2c0,2.2-1.8,4-4,4h-1.6c-2.2,0-4-1.8-4-4v-1.2
			C332.1,689.9,333.9,688.1,336.1,688.1z"/>
		<ellipse class="st14" cx="322" cy="676" rx="2.4" ry="2.3"/>
		<ellipse class="st14" cx="317.2" cy="681.8" rx="2.4" ry="2.3"/>
		<ellipse class="st14" cx="322" cy="686.4" rx="2.4" ry="2.3"/>
		<ellipse class="st14" cx="326.8" cy="681.8" rx="2.4" ry="2.3"/>
		
			<ellipse transform="matrix(0.9897 -0.1435 0.1435 0.9897 -95.1724 61.5566)" class="st10" cx="379.2" cy="690.6" rx="10.9" ry="22"/>
		<rect x="351.8" y="670.5" class="st11" width="21.2" height="27"/>
		<ellipse class="st12" cx="365" cy="694" rx="5.7" ry="6.9"/>
		<rect x="351.2" y="671.1" class="st13" width="14.9" height="13.8"/>
		<path class="st14" d="M365.5,697.4h-1.2c-2.2,0-4-1.8-4-4v-1.2c0-2.2,1.8-4,4-4h1.2c2.2,0,4,1.8,4,4v1.2
			C369.5,695.6,367.7,697.4,365.5,697.4z"/>
		<circle class="st14" cx="379.3" cy="676.2" r="2.3"/>
		<circle class="st14" cx="383.9" cy="682" r="2.3"/>
		<circle class="st14" cx="379.3" cy="686.5" r="2.3"/>
		<circle class="st14" cx="374.7" cy="682" r="2.3"/>
		<rect x="343.3" y="695.5" class="st15" width="16" height="3.4"/>
		<rect x="350.1" y="670.3" class="st15" width="2.3" height="16"/>
	</g>
</g>
<g id="internet">
	<g id="line_x5F_2">
		<circle class="st1" cx="415.1" cy="528.8" r="3"/>
		<circle class="st1" cx="436.1" cy="578.8" r="3"/>
		<line class="st1" x1="415.1" y1="559.8" x2="415.1" y2="531.8"/>
		<line class="st1" x1="433.1" y1="578.8" x2="415.1" y2="559.8"/>
	</g>
	<g id="symbol_x5F_2" class="symbol" data-number="2">
		<circle class="st3" cx="494" cy="581.4" r="50.5"/>
		<circle class="st4" cx="493.7" cy="581.7" r="40.2"/>
		<ellipse transform="matrix(0.9239 -0.3827 0.3827 0.9239 -184.7385 233.2165)" class="st5" cx="493.9" cy="581" rx="30" ry="30"/>
		<ellipse class="st16" cx="494.1" cy="581.2" rx="32" ry="32.5"/>
		<circle class="st8" cx="494.1" cy="581.9" r="21.1"/>
		<rect x="473" y="580.1" class="st17" width="42.2" height="2.4"/>
		<rect x="493.5" y="560.8" class="st17" width="2.4" height="42.2"/>
		<path class="st17" d="M479.9,566.2c0,0,8.6,5.4,14.2,5.4"/>
		<path class="st17" d="M478.8,567.6c0,0,9.2,5.6,15.2,5.8"/>
		<path class="st17" d="M508.1,566.2c0,0-8.6,5.5-14.2,5.5"/>
		<path class="st17" d="M509.3,567.6c0,0-9.2,5.7-15.3,5.9"/>
		<ellipse class="st17" cx="494.1" cy="581.9" rx="9" ry="21.1"/>
		<path class="st17" d="M509.8,595.3c0,0-9.3-5.1-15.1-4.9"/>
		<path class="st17" d="M511,593.9c0,0-9.9-5.3-16.2-5.2"/>
		<path class="st17" d="M479.7,596.3c0,0,9.1-5.8,15.1-6"/>
		<path class="st17" d="M478.4,595c0,0,9.8-6.1,16.3-6.4"/>
	</g>
</g>
<g id="ehandel">
	<g id="line_x5F_1">
		<circle class="st1" cx="484.2" cy="402.5" r="3"/>
		<circle class="st1" cx="556.2" cy="380.5" r="3"/>
		<line class="st1" x1="533.2" y1="402.5" x2="487.2" y2="402.5"/>
		<line class="st1" x1="556.2" y1="383.5" x2="533.2" y2="402.5"/>
	</g>
	<g id="symbol_x5F_1" class="symbol" data-number="1">
		<circle class="st3" cx="570.9" cy="322.2" r="50.5"/>
		<circle class="st4" cx="570.6" cy="322.5" r="40.2"/>
		<circle class="st5" cx="570.7" cy="321.7" r="30"/>
		<path class="st6" d="M596.6,302.5l2.3,0.2c0.6,0,1,0.5,1,1.1l-1.7,22.7c0,0.6-0.5,1-1.1,1l-2.3-0.2c-0.6,0-1-0.5-1-1.1l1.7-22.7
			C595.6,302.9,596,302.5,596.6,302.5z"/>
		<path class="st6" d="M559.4,326.6l37.5-3.4c0.5,0,1,0.3,1,0.9l0.2,2.6c0,0.5-0.3,1-0.9,1l-37.5,3.4c-0.5,0-1-0.3-1-0.9l-0.2-2.6
			C558.5,327.1,558.9,326.7,559.4,326.6z"/>
		<path class="st6" d="M550.5,301h47.7c0.5,0,0.9,0.4,0.9,0.9v2.6c0,0.5-0.4,0.9-0.9,0.9h-47.7c-0.5,0-0.9-0.4-0.9-0.9V302
			C549.5,301.4,549.9,301,550.5,301z"/>
		<path class="st6" d="M598.4,301c0,0,1.8,0.3,1.8,1.5c-0.1,1-0.2,2-0.4,3l-3.7-3L598.4,301z"/>
		<path class="st6" d="M545,289l16.6,39.8c0.2,0.5,0,1-0.5,1.2l-2.4,1c-0.5,0.2-1,0-1.2-0.5l-16.6-39.8c-0.2-0.5,0-1,0.5-1.2l2.4-1
			C544.3,288.3,544.8,288.5,545,289z"/>
		<path class="st6" d="M534.5,284.7l9.5,3.7c1,0.4,1.5,1.5,1.1,2.6l-0.2,0.5c-0.4,1-1.5,1.5-2.6,1.1l-9.5-3.7
			c-1-0.4-1.5-1.5-1.1-2.6l0.2-0.5C532.3,284.8,533.4,284.3,534.5,284.7z"/>
		<path class="st6" d="M557.3,328.9l1,1c0.4,0.4,0.4,1,0,1.4l-7.8,7.8c-0.4,0.4-1,0.4-1.4,0l-1-1c-0.4-0.4-0.4-1,0-1.4l7.8-7.8
			C556.2,328.5,556.9,328.5,557.3,328.9z"/>
		<path class="st6" d="M598.7,341.6v0.7c0,0.7-0.6,1.3-1.3,1.3h-42c-0.7,0-1.3-0.6-1.3-1.3v-0.7c0-0.7,0.6-1.3,1.3-1.3h42
			C598.1,340.3,598.7,340.9,598.7,341.6z"/>
		<path class="st6" d="M548.1,336.7l0.3-0.3c0.5-0.6,1.5-0.7,2.1-0.2l5.6,4.8c0.6,0.5,0.7,1.5,0.2,2.1l-0.3,0.3
			c-0.5,0.6-1.5,0.7-2.1,0.2l-5.6-4.8C547.7,338.2,547.6,337.3,548.1,336.7z"/>
		<circle class="st8" cx="554.6" cy="348.1" r="3.9"/>
		<circle cx="554.6" cy="348.1" r="2.2"/>
		<circle class="st8" cx="591.8" cy="348.1" r="3.9"/>
		<circle cx="591.8" cy="348.1" r="2.2"/>
		<rect x="565.3" y="305.9" class="st8" width="1.1" height="20.3"/>
		<rect x="573.2" y="305.9" class="st8" width="1.1" height="20.3"/>
		<rect x="581.1" y="305.9" class="st8" width="1.1" height="20.3"/>
		<rect x="589" y="305.9" class="st8" width="1.1" height="20.3"/>
		<rect x="557.4" y="305.9" class="st8" width="1.1" height="16.9"/>
		<rect x="554" y="311.5" class="st8" width="40.6" height="1.1"/>
		<rect x="556.3" y="319.4" class="st8" width="38.3" height="1.1"/>
	</g>
</g>
<g id="programmering">
	<g id="line_x5F_0">
		<line class="st1" x1="303.4" y1="113" x2="303.4" y2="173"/>
		<line class="st1" x1="348.4" y1="215" x2="303.4" y2="173"/>
		<line class="st1" x1="348.4" y1="288" x2="348.4" y2="215"/>
		<circle class="st1" cx="348.4" cy="290" r="3"/>
		<circle class="st1" cx="303.4" cy="110" r="3"/>
	</g>
	<g id="symbol_x5F_0" class="symbol" data-number="0">
		<circle class="st3" cx="302.9" cy="51.5" r="50.5"/>
		<circle class="st4" cx="302.6" cy="51.8" r="40.2"/>
		<circle class="st5" cx="302.7" cy="51" r="30"/>
		<path class="st18" d="M270.8,29.3h46.7c0.8,0,1.5,0.7,1.5,1.5v33.1c0,0.8-0.7,1.5-1.5,1.5h-46.7c-0.8,0-1.5-0.7-1.5-1.5V30.8
			C269.2,30,269.9,29.3,270.8,29.3z"/>
		<rect x="271" y="31.3" width="46.2" height="32.4"/>
		<path class="st18" d="M291.2,43h46.7c0.8,0,1.5,0.7,1.5,1.5v33.1c0,0.8-0.7,1.5-1.5,1.5h-46.7c-0.8,0-1.5-0.7-1.5-1.5V44.5
			C289.7,43.7,290.3,43,291.2,43z"/>
		<rect x="291.4" y="45" width="46.2" height="32.4"/>
		<polygon class="st19" points="315.7,51.9 318,51.9 313.4,71.6 311,71.6 		"/>
		<polygon class="st19" points="308.7,54.2 308.7,58.9 299.5,61.2 308.7,64.7 308.7,69.3 296,63.5 296,60 		"/>
		<polygon class="st19" points="320.3,54.1 320.3,58.7 329.5,61 320.3,64.5 320.3,69.1 333,63.4 333,59.9 		"/>
		<rect x="272.3" y="32.8" class="st19" width="1.2" height="1.2"/>
		<rect x="272.3" y="35.2" class="st19" width="1.2" height="1.2"/>
		<rect x="272.3" y="37.5" class="st19" width="1.2" height="1.2"/>
		<rect x="272.3" y="39.8" class="st19" width="1.2" height="1.2"/>
		<rect x="272.3" y="42.1" class="st19" width="1.2" height="1.2"/>
		<rect x="272.3" y="44.4" class="st19" width="1.2" height="1.2"/>
		<rect x="272.3" y="46.7" class="st19" width="1.2" height="1.2"/>
		<rect x="272.3" y="49" class="st19" width="1.2" height="1.2"/>
		<rect x="272.3" y="51.3" class="st19" width="1.2" height="1.2"/>
		<rect x="272.3" y="53.7" class="st19" width="1.2" height="1.2"/>
		<rect x="272.3" y="56" class="st19" width="1.2" height="1.2"/>
		<rect x="272.3" y="58.3" class="st19" width="1.2" height="1.2"/>
		<rect x="272.3" y="60.6" class="st19" width="1.2" height="1.2"/>
		<rect x="275.8" y="32.8" class="st20" width="3.5" height="1.2"/>
		<rect x="275.8" y="35.2" class="st21" width="3.5" height="1.2"/>
		<rect x="275.8" y="58.3" class="st20" width="3.5" height="1.2"/>
		<rect x="282.7" y="42.1" class="st21" width="6.9" height="1.2"/>
		<rect x="275.8" y="56" class="st21" width="3.5" height="1.2"/>
		<rect x="279.2" y="39.8" class="st21" width="9.2" height="1.2"/>
		<rect x="280.4" y="50.2" class="st21" width="9.2" height="1.2"/>
		<rect x="276.9" y="37.5" class="st20" width="5.8" height="1.2"/>
		<rect x="279.2" y="44.4" class="st20" width="3.5" height="1.2"/>
		<rect x="285" y="46.7" class="st20" width="3.5" height="1.2"/>
		<rect x="276.9" y="52.5" class="st20" width="4.6" height="1.2"/>
		<rect x="283.9" y="44.4" class="st22" width="5.8" height="1.2"/>
		<rect x="282.7" y="52.5" class="st22" width="5.8" height="1.2"/>
		<rect x="283.9" y="37.5" class="st22" width="8.1" height="1.2"/>
		<rect x="289.7" y="39.8" class="st22" width="12.7" height="1.2"/>
	</g>
</g>
<g id="pile">
	<line class="st1" x1="413.5" y1="302.1" x2="485.5" y2="196.1"/>
	<line class="st1" x1="485.5" y1="196.1" x2="536.5" y2="196.1"/>
	<line class="st1" x1="535.5" y1="154.1" x2="535.5" y2="197.1"/>
	<circle class="st1" cx="535.5" cy="151.1" r="3"/>
	<circle class="st1" cx="411.5" cy="304.1" r="3"/>
	<line class="st1" x1="471.5" y1="462.1" x2="590.5" y2="462.1"/>
	<line class="st1" x1="590.5" y1="462.1" x2="636.5" y2="512.1"/>
	<line class="st1" x1="636.5" y1="512.1" x2="675.5" y2="512.1"/>
	<circle class="st1" cx="678.5" cy="512.1" r="3"/>
	<circle class="st1" cx="468.5" cy="462.1" r="3"/>
	<line class="st1" x1="274.5" y1="509.1" x2="187.5" y2="595.1"/>
	<line class="st1" x1="187.5" y1="595.1" x2="68.5" y2="595.1"/>
	<line class="st1" x1="69.5" y1="595.1" x2="69.5" y2="636.1"/>
	<circle class="st1" cx="69.5" cy="639.1" r="3"/>
	<circle class="st1" cx="276.5" cy="507.1" r="3"/>
	<line class="st1" x1="231.5" y1="397.1" x2="103.5" y2="397.1"/>
	<line class="st1" x1="103.5" y1="397.1" x2="103.5" y2="363.1"/>
	<line class="st1" x1="10.5" y1="363.1" x2="103.5" y2="363.1"/>
	<circle class="st1" cx="11.5" cy="381.1" r="3"/>
	<line class="st1" x1="11.5" y1="363.1" x2="11.5" y2="378.1"/>
	<circle class="st1" cx="233.5" cy="397.1" r="3"/>
</g>
</svg>
