<?xml version="1.0" encoding="utf-8"?>
<!-- Generator: Adobe Illustrator 24.1.0, SVG Export Plug-In . SVG Version: 6.00 Build 0)  -->
<svg version="1.1" id="Layer_1" xmlns="http://www.w3.org/2000/svg" xmlns:xlink="http://www.w3.org/1999/xlink" x="0px" y="0px"
	 viewBox="0 0 700 800" style="enable-background:new 0 0 700 800;" xml:space="preserve">
<style type="text/css">
	.st0{fill:#7AB2F4;}
	.st1{fill:none;stroke:#000000;stroke-width:2;stroke-miterlimit:10;}
	.st2{fill:#177219;}
	.st3{fill:none;stroke:#00FF00;stroke-width:2;stroke-miterlimit:10;}
	.st4{opacity:0.36;fill:none;stroke:#000000;stroke-width:2;stroke-miterlimit:10;enable-background:new    ;}
	.st5{opacity:0.47;fill:none;stroke:#000000;stroke-width:2;stroke-miterlimit:10;enable-background:new    ;}
	.st6{opacity:0.59;fill:none;stroke:#000000;stroke-width:2;stroke-miterlimit:10;enable-background:new    ;}
	.st7{stroke:#000000;stroke-width:0.5;stroke-miterlimit:10;}
	.st8{opacity:0.47;fill:none;stroke:#000000;stroke-width:1.9999;stroke-miterlimit:9.9995;enable-background:new    ;}
	.st9{opacity:0.59;fill:none;stroke:#000000;stroke-width:2.0001;stroke-miterlimit:10.0003;enable-background:new    ;}
	.st10{fill:#C1BFBF;stroke:#000000;stroke-miterlimit:10;}
	.st11{fill:none;stroke:#000000;stroke-miterlimit:10;}
	.st12{fill:#EACACA;stroke:#000000;stroke-miterlimit:10;}
	.st13{stroke:#000000;stroke-width:1;stroke-miterlimit:10.0003;}
	.st14{fill:#020100;stroke:#020100;stroke-miterlimit:10;}
	.st15{stroke:#020100;stroke-miterlimit:10;}
	.st16{fill:none;stroke:#FFFFFF;stroke-miterlimit:10;}
	.st17{fill:#FCFCFC;}
	.st18{stroke:#000000;stroke-width:1;stroke-miterlimit:10.0005;}
	.st19{fill:#020100;}
	.st20{fill:#56B3CC;}
	.st21{fill:none;stroke:#000000;stroke-width:0.5;stroke-miterlimit:10;}
	.st22{fill:#47ABE2;}
	.st23{fill:#FFFFFF;}
	.st24{fill:#E53042;}
	.st25{fill:#326CBF;}
	.st26{fill:#26C42A;}
</style>
<g id="jorden">
	<ellipse class="st0" cx="364" cy="446" rx="108.1" ry="108.8"/>
	<path class="st1" d="M325.8,383.1"/>
	<path class="st2" d="M444.9,373.9l7.4,9.3l7.8,12.8l4.3,9.4l2.2,6l3.4,12.5l0.9,4.7l1.2,10.7V450c0,0-2.1-1.7-3.1,0.3s-6,5-7,4
		c0,0-6,2-10-6s-21,3-21,3s-14,4-22-8s-3-20-5-29s-16-22-21-21s-6-26,17-22s27-4,27-4L444.9,373.9z"/>
	<path class="st2" d="M314.1,349.5l6.8-3.2l4.8-2l8.5-2.8l2.6-0.7l10-2.1c0,0,13.5-1.7,13.5,5.3s3,11-3,16s-19,4-23,10s0,12,3,13
		s3,2,0,8s-19,4-19,0s-6-11-6-17s5-8,6-12S314.1,349.5,314.1,349.5z"/>
	<path class="st2" d="M354.2,384.9c0,0-9,4-6,8s10,6,11,4s6-5,5-7s-2,2-5,1S354.2,384.9,354.2,384.9z"/>
	<path class="st2" d="M263.4,406.1l3.4-7.8l3.8-7.1l1.3-2.2l6.1-9c0,0,14.3,2.8,14.3,8.8s-1,13-4,17s-4,15-10,16s-12,2-14,0
		s-4.5-4.8-4.5-4.8L263.4,406.1z"/>
	<path class="st2" d="M362.2,466.9c0,0-9-7-5-15s3-7,10-10s13-12,11-14s13-9,12-1c6.3,9.8,9.1,21.4,8,33c-2,19,11,12,11,12
		s15-2,24,1s3,14,3,14s-23,22-27,30c-4,8-21,26-26,16c-5-10-1-17,0-30c1-13-4-26-10-26S362.2,466.9,362.2,466.9z"/>
	<path class="st2" d="M259,472.2l1.4,5.1l2,6.1l2.8,7.1l2.9,6l2.6,4.8l2.5,4l3,4.5l5.9,7.5l6.7,7.2l3.4,3.2c0,0,15.1-3.7,18.1-9.7
		s10-8,7-14s-3-8-6-8s-8-1-7-3s2-5,0-6s-5-2-5-7s3-4,2-11s-5-13-7-13s-6,1-6-4s-1-11-5-9c0,0-7-5-14,0c-3.5,2.4-6.9,5.1-10,8
		c0,0-2,6-2,7s1,11.3,1,11.3L259,472.2z"/>
	<path class="st2" d="M354.4,491.5c0,0-3.8-9.1-7.8-6.2c-4.1,2.9-6.3,9.8-4.3,10.9s4.8,6.1,6.9,5.2s-2-2.1-0.9-5
		S354.4,491.5,354.4,491.5z"/>
</g>
<g id="arbejde">
	<g id="line_x5F_5">
		<circle class="st1" cx="256.8" cy="359.5" r="3"/>
		<circle class="st1" cx="156.8" cy="307.5" r="3"/>
		<polyline class="st1" points="253.8,359.5 189.6,359.5 156.4,326.3 156.4,310.5 		"/>
	</g>
	<g id="line_x5F_5_x5F_anim">
		<circle id="circle_x5F_5_x5F_start" class="st3" cx="256.8" cy="359.5" r="3"/>
		<circle id="circle_x5F_5_x5F_end" class="st3" cx="156.8" cy="307.5" r="3"/>
		<polyline id="path_x5F_5" class="st3" points="253.8,359.5 189.6,359.5 156.4,326.3 156.4,310.5 		"/>
	</g>
	<g id="symbol_x5F_5">
		<circle class="st4" cx="156.1" cy="246.6" r="50.5"/>
		<circle class="st5" cx="155.9" cy="246.9" r="40.2"/>
		<circle class="st6" cx="156.1" cy="246.1" r="30"/>
		<path class="st7" d="M168.1,279.9h11.8c1.1,0,2,0.9,2,2v0.5c0,1.1-0.9,2-2,2h-11.8c-1.1,0-2-0.9-2-2v-0.5
			C166.1,280.8,166.9,279.9,168.1,279.9z"/>
		<rect x="171.6" y="251.6" class="st7" width="4.5" height="28.2"/>
		<path class="st7" d="M158.6,247.1H189c0.3,0,0.6,0.3,0.6,0.6v3.3c0,0.3-0.3,0.6-0.6,0.6h-30.4c-0.3,0-0.6-0.3-0.6-0.6v-3.3
			C158.1,247.4,158.4,247.1,158.6,247.1z"/>
		<path class="st7" d="M185.9,222.1l3.2,0.6c0.3,0.1,0.6,0.4,0.5,0.7l-4.1,20.1c-0.1,0.3-0.4,0.6-0.7,0.5l-3.2-0.6
			c-0.3-0.1-0.6-0.4-0.5-0.7l4.1-20.1C185.1,222.4,185.6,222.1,185.9,222.1z"/>
		<path class="st7" d="M185.2,240.9v3.3c0,0.3-0.3,0.6-0.6,0.6h-21.4c-0.3,0-0.6-0.3-0.6-0.6v-3.3c0-0.3,0.3-0.6,0.6-0.6h21.4
			C184.9,240.4,185.2,240.6,185.2,240.9z"/>
		<circle class="st7" cx="138.9" cy="218.9" r="6.8"/>
		<path class="st7" d="M133.2,230.1h6.8c1.2,0,2.2,1,2.2,2.2v20.4c0,1.2-1,2.2-2.2,2.2h-6.8c-1.2,0-2.2-1-2.2-2.2v-20.4
			C131.1,231.1,132.1,230.1,133.2,230.1z"/>
		<rect x="140.1" y="251.6" class="st7" width="11.3" height="3.4"/>
		<path class="st7" d="M151.8,251.6h2.6c0.2,0,0.4,0.2,0.4,0.4v2.6c0,0.2-0.2,0.4-0.4,0.4h-2.6c-0.2,0-0.4-0.2-0.4-0.4V252
			C151.4,251.8,151.6,251.6,151.8,251.6z"/>
		<path class="st7" d="M152.9,252.8h0.4c0.8,0,1.5,0.7,1.5,1.5v26.4c0,0.8-0.7,1.5-1.5,1.5h-0.4c-0.8,0-1.5-0.7-1.5-1.5v-26.4
			C151.4,253.4,152.1,252.8,152.9,252.8z"/>
		<path class="st7" d="M140.1,231.4l0.4-0.2c0.9-0.5,2-0.2,2.5,0.7l3.5,6.1c0.5,0.9,0.2,2-0.7,2.5l-0.4,0.2c-0.9,0.5-2,0.2-2.5-0.7
			l-3.5-6.1C138.9,232.9,139.1,231.9,140.1,231.4z"/>
		<path class="st7" d="M144.4,238.1h12.7c0.6,0,1,0.4,1,1v1.4c0,0.6-0.4,1-1,1h-12.7c-0.6,0-1-0.4-1-1v-1.4
			C143.4,238.6,143.9,238.1,144.4,238.1z"/>
		<path class="st7" d="M126.2,236.9h0.5c1.1,0,2,0.9,2,2v43.4c0,1.1-0.9,2-2,2h-0.5c-1.1,0-2-0.9-2-2V239
			C124.2,237.9,125.2,236.9,126.2,236.9z"/>
		<path class="st7" d="M146.6,257.2h0.5c1.1,0,2,0.9,2,2v23.1c0,1.1-0.9,2-2,2h-0.5c-1.1,0-2-0.9-2-2v-23.1
			C144.6,258.1,145.4,257.2,146.6,257.2z"/>
		<rect x="128.8" y="257.2" class="st7" width="18.1" height="4.5"/>
	</g>
</g>
<g id="kommunikation">
	<g id="line_x5F_4">
		<circle class="st1" cx="244.1" cy="472.2" r="3"/>
		<circle class="st1" cx="120.2" cy="510.2" r="3"/>
		<polyline class="st1" points="241.1,472.2 206.6,472.2 169.3,510.2 123.2,510.2 		"/>
	</g>
	<g id="line_x5F_4_x5F_anim">
		<circle id="circle_x5F_4_x5F_start" class="st3" cx="244.1" cy="472.2" r="3"/>
		<circle id="circle_x5F_4_x5F_end" class="st3" cx="120.2" cy="510.2" r="3"/>
		<polyline id="path_x5F_4" class="st3" points="241.1,472.2 206.6,472.2 169.3,510.2 123.2,510.2 		"/>
	</g>
	<g id="symbol_x5F_4">
		<circle class="st4" cx="60.2" cy="507.2" r="50.5"/>
		
			<ellipse transform="matrix(3.327949e-02 -0.9994 0.9994 3.327949e-02 -449.2997 550.5764)" class="st8" cx="60" cy="507.5" rx="40.2" ry="40.2"/>
		<ellipse class="st9" cx="60.2" cy="506.8" rx="30" ry="30"/>
		<path class="st10" d="M55.2,488.5h46.4c1.5,0,2.7,1.2,2.7,2.7v29.1c0,1.5-1.2,2.7-2.7,2.7H55.2c-1.5,0-2.7-1.2-2.7-2.7v-29.1
			C52.5,489.8,53.7,488.5,55.2,488.5z"/>
		<line class="st11" x1="88.3" y1="523" x2="98.4" y2="533"/>
		<line class="st11" x1="98.4" y1="523" x2="98.4" y2="533"/>
		<path class="st12" d="M22.6,479.9h51c1.8,0,3.2,1.4,3.2,3.2V514c0,1.8-1.4,3.2-3.2,3.2h-51c-1.8,0-3.2-1.4-3.2-3.2v-30.9
			C19.5,481.4,20.9,479.9,22.6,479.9z"/>
		<circle class="st11" cx="35.2" cy="498.5" r="4.3"/>
		<circle class="st11" cx="48.2" cy="498.5" r="4.3"/>
		<circle class="st11" cx="61" cy="498.5" r="4.3"/>
		<line class="st11" x1="26.6" y1="533" x2="26.6" y2="517.2"/>
		<line class="st11" x1="41" y1="517.2" x2="26.6" y2="533"/>
		<line class="st11" x1="26.6" y1="517.2" x2="41" y2="517.2"/>
	</g>
</g>
<g id="esport">
	<g id="line_x5F_3">
		<line class="st1" x1="358.1" y1="565" x2="359.1" y2="658"/>
		<circle class="st1" cx="358.1" cy="562" r="3"/>
		<circle class="st1" cx="359.1" cy="661" r="3"/>
	</g>
	<g id="line_x5F_3_x5F_anim">
		<line id="path_x5F_3" class="st3" x1="358.1" y1="565" x2="359.1" y2="658"/>
		<circle id="circle_x5F_3_x5F_start" class="st3" cx="358.1" cy="562" r="3"/>
		<circle id="circle_x5F_3_x5F_end" class="st3" cx="359.1" cy="661" r="3"/>
	</g>
	<g id="symbol_x5F_3">
		<circle class="st4" cx="358.6" cy="720.8" r="50.5"/>
		<circle class="st5" cx="358.4" cy="721" r="40.2"/>
		<circle class="st6" cx="358.5" cy="720.2" r="30"/>
		
			<ellipse transform="matrix(0.154 -0.9881 0.9881 0.154 -429.6712 934.2905)" class="st13" cx="330.8" cy="718.1" rx="22" ry="11.3"/>
		<rect x="337.2" y="698" class="st14" width="44" height="27"/>
		<ellipse class="st15" cx="345.6" cy="721.5" rx="6" ry="6.9"/>
		<rect x="344.5" y="698.7" class="st16" width="15.6" height="13.8"/>
		<path class="st17" d="M344.9,715.8h1.6c2.2,0,4,1.8,4,4v1.2c0,2.2-1.8,4-4,4h-1.6c-2.2,0-4-1.8-4-4v-1.2
			C340.9,717.7,342.6,715.8,344.9,715.8z"/>
		<ellipse class="st17" cx="330.8" cy="703.8" rx="2.4" ry="2.3"/>
		<ellipse class="st17" cx="326" cy="709.5" rx="2.4" ry="2.3"/>
		<ellipse class="st17" cx="330.8" cy="714.2" rx="2.4" ry="2.3"/>
		<ellipse class="st17" cx="335.5" cy="709.5" rx="2.4" ry="2.3"/>
		
			<ellipse transform="matrix(0.9897 -0.1435 0.1435 0.9897 -99.0672 63.1056)" class="st18" cx="388" cy="718.4" rx="10.9" ry="22"/>
		<rect x="360.5" y="698.2" class="st14" width="21.2" height="27"/>
		<ellipse class="st15" cx="373.8" cy="721.8" rx="5.7" ry="6.9"/>
		<rect x="360" y="698.8" class="st16" width="14.9" height="13.8"/>
		<path class="st17" d="M374.2,725.2H373c-2.2,0-4-1.8-4-4V720c0-2.2,1.8-4,4-4h1.2c2.2,0,4,1.8,4,4v1.2
			C378.2,723.3,376.5,725.2,374.2,725.2z"/>
		<circle class="st17" cx="388" cy="704" r="2.3"/>
		<circle class="st17" cx="392.6" cy="709.8" r="2.3"/>
		<circle class="st17" cx="388" cy="714.2" r="2.3"/>
		<circle class="st17" cx="383.5" cy="709.8" r="2.3"/>
		<rect x="352" y="723.2" class="st19" width="16" height="3.4"/>
		<rect x="358.9" y="698" class="st19" width="2.3" height="16"/>
	</g>
</g>
<g id="internet">
	<g id="line_x5F_2">
		<circle class="st1" cx="423.9" cy="556.5" r="3"/>
		<circle class="st1" cx="444.9" cy="606.5" r="3"/>
		<polyline class="st1" points="423.9,559.5 423.9,583.8 441.9,606.5 		"/>
	</g>
	<g id="line_x5F_2_x5F_anim">
		<circle id="circle_x5F_2_x5F_start" class="st3" cx="423.9" cy="556.5" r="3"/>
		<circle id="circle_x5F_2_x5F_end" class="st3" cx="444.9" cy="606.5" r="3"/>
		<polyline id="path_x5F_2" class="st3" points="423.9,559.5 423.9,583.8 441.9,606.5 		"/>
	</g>
	<g id="symbol_x5F_2">
		<circle class="st4" cx="502.8" cy="609.2" r="50.5"/>
		<circle class="st5" cx="502.5" cy="609.5" r="40.2"/>
		<ellipse transform="matrix(0.9732 -0.2298 0.2298 0.9732 -126.4156 131.78)" class="st9" cx="502.7" cy="608.7" rx="30" ry="30"/>
		<ellipse class="st20" cx="502.9" cy="609" rx="32" ry="32.5"/>
		<circle class="st11" cx="502.9" cy="609.7" r="21.1"/>
		<rect x="481.8" y="607.8" class="st21" width="42.2" height="2.4"/>
		<rect x="502.2" y="588.5" class="st21" width="2.4" height="42.2"/>
		<path class="st21" d="M488.6,594c0,0,8.6,5.4,14.2,5.4"/>
		<path class="st21" d="M487.5,595.3c0,0,9.2,5.6,15.2,5.8"/>
		<path class="st21" d="M516.8,594c0,0-8.6,5.5-14.2,5.5"/>
		<path class="st21" d="M518,595.3c0,0-9.2,5.7-15.3,5.9"/>
		<ellipse class="st21" cx="502.9" cy="609.7" rx="9" ry="21.1"/>
		<path class="st21" d="M518.5,623c0,0-9.3-5.1-15.1-4.9"/>
		<path class="st21" d="M519.8,621.7c0,0-9.9-5.3-16.2-5.2"/>
		<path class="st21" d="M488.5,624c0,0,9.1-5.8,15.1-6"/>
		<path class="st21" d="M487.1,622.8c0,0,9.8-6.1,16.3-6.4"/>
	</g>
</g>
<g id="ehandel">
	<g id="line_x5F_1">
		<circle class="st1" cx="493" cy="430.2" r="3"/>
		<circle class="st1" cx="565" cy="408.2" r="3"/>
		<polyline class="st1" points="496,430.2 540.6,430.2 562.8,410.3 		"/>
	</g>
	<g id="line_x5F_1_x5F_anim">
		<circle id="circle_x5F_1_x5F_start" class="st3" cx="493" cy="430.2" r="3"/>
		<circle id="circle_x5F_1_x5F_end" class="st3" cx="565" cy="408.2" r="3"/>
		<polyline id="path_x5F_1" class="st3" points="496,430.2 540.6,430.2 562.8,410.3 		"/>
	</g>
	<g id="symbol_x5F_1">
		<circle class="st4" cx="579.7" cy="350" r="50.5"/>
		<circle class="st5" cx="579.3" cy="350.2" r="40.2"/>
		<circle class="st6" cx="579.5" cy="349.5" r="30"/>
		<path class="st7" d="M605.3,330.2l2.3,0.2c0.6,0,1,0.5,1,1.1l-1.7,22.7c0,0.6-0.5,1-1.1,1l-2.3-0.2c-0.6,0-1-0.5-1-1.1l1.7-22.7
			C604.3,330.6,604.8,330.2,605.3,330.2z"/>
		<path class="st7" d="M568.2,354.4l37.5-3.4c0.5,0,1,0.3,1,0.9l0.2,2.6c0,0.5-0.3,1-0.9,1l-37.5,3.4c-0.5,0-1-0.3-1-0.9l-0.2-2.6
			C567.2,354.9,567.7,354.5,568.2,354.4z"/>
		<path class="st7" d="M559.2,328.8H607c0.5,0,0.9,0.4,0.9,0.9v2.6c0,0.5-0.4,0.9-0.9,0.9h-47.7c-0.5,0-0.9-0.4-0.9-0.9v-2.5
			C558.2,329.1,558.7,328.8,559.2,328.8z"/>
		<path class="st7" d="M607.2,328.8c0,0,1.8,0.3,1.8,1.5c-0.1,1-0.2,2-0.4,3l-3.7-3L607.2,328.8z"/>
		<path class="st7" d="M553.8,316.8l16.6,39.8c0.2,0.5,0,1-0.5,1.2l-2.4,1c-0.5,0.2-1,0-1.2-0.5l-16.6-39.8c-0.2-0.5,0-1,0.5-1.2
			l2.4-1C553,316,553.5,316.2,553.8,316.8z"/>
		<path class="st7" d="M543.2,312.5l9.5,3.7c1,0.4,1.5,1.5,1.1,2.6l-0.2,0.5c-0.4,1-1.5,1.5-2.6,1.1l-9.5-3.7
			c-1-0.4-1.5-1.5-1.1-2.6l0.2-0.5C541,312.5,542.2,312,543.2,312.5z"/>
		<path class="st7" d="M566,356.6l1,1c0.4,0.4,0.4,1,0,1.4l-7.8,7.8c-0.4,0.4-1,0.4-1.4,0l-1-1c-0.4-0.4-0.4-1,0-1.4l7.8-7.8
			C565,356.2,565.7,356.2,566,356.6z"/>
		<path class="st7" d="M607.5,369.4v0.7c0,0.7-0.6,1.3-1.3,1.3h-42c-0.7,0-1.3-0.6-1.3-1.3v-0.7c0-0.7,0.6-1.3,1.3-1.3h42
			C606.8,368,607.5,368.6,607.5,369.4z"/>
		<path class="st7" d="M556.8,364.5l0.3-0.3c0.5-0.6,1.5-0.7,2.1-0.2l5.6,4.8c0.6,0.5,0.7,1.5,0.2,2.1l-0.3,0.3
			c-0.5,0.6-1.5,0.7-2.1,0.2l-5.6-4.8C556.5,366,556.3,365,556.8,364.5z"/>
		<circle class="st11" cx="563.3" cy="375.9" r="3.9"/>
		<circle cx="563.3" cy="375.9" r="2.2"/>
		<circle class="st11" cx="600.5" cy="375.9" r="3.9"/>
		<circle cx="600.5" cy="375.9" r="2.2"/>
		<rect x="574" y="333.6" class="st11" width="1.1" height="20.3"/>
		<rect x="582" y="333.6" class="st11" width="1.1" height="20.3"/>
		<rect x="589.8" y="333.6" class="st11" width="1.1" height="20.3"/>
		<rect x="597.8" y="333.6" class="st11" width="1.1" height="20.3"/>
		<rect x="566.2" y="333.6" class="st11" width="1.1" height="16.9"/>
		<rect x="562.8" y="339.2" class="st11" width="40.6" height="1.1"/>
		<rect x="565" y="347.1" class="st11" width="38.3" height="1.1"/>
	</g>
</g>
<g id="programmering">
	<g id="symbol_x5F_0">
		<circle class="st4" cx="311.5" cy="79.4" r="50.5"/>
		<circle class="st5" cx="311.2" cy="79.7" r="40.2"/>
		<circle class="st6" cx="311.3" cy="78.9" r="30"/>
		<path class="st22" d="M279.4,57.2h46.7c0.8,0,1.5,0.7,1.5,1.5v33.1c0,0.8-0.7,1.5-1.5,1.5h-46.7c-0.8,0-1.5-0.7-1.5-1.5V58.7
			C277.8,57.9,278.5,57.2,279.4,57.2z"/>
		<rect x="279.6" y="59.2" width="46.2" height="32.4"/>
		<path class="st22" d="M299.8,70.9h46.7c0.8,0,1.5,0.7,1.5,1.5v33.1c0,0.8-0.7,1.5-1.5,1.5h-46.7c-0.8,0-1.5-0.7-1.5-1.5V72.4
			C298.3,71.6,298.9,70.9,299.8,70.9z"/>
		<rect x="300" y="72.9" width="46.2" height="32.4"/>
		<polygon class="st23" points="324.3,79.8 326.6,79.8 322,99.5 319.6,99.5 		"/>
		<polygon class="st23" points="317.3,82.1 317.3,86.8 308.1,89.1 317.3,92.6 317.3,97.2 304.6,91.4 304.6,87.9 		"/>
		<polygon class="st23" points="328.9,82 328.9,86.6 338.1,88.9 328.9,92.4 328.9,97 341.6,91.3 341.6,87.8 		"/>
		<rect x="280.9" y="60.7" class="st23" width="1.2" height="1.2"/>
		<rect x="280.9" y="63.1" class="st23" width="1.2" height="1.2"/>
		<rect x="280.9" y="65.4" class="st23" width="1.2" height="1.2"/>
		<rect x="280.9" y="67.7" class="st23" width="1.2" height="1.2"/>
		<rect x="280.9" y="70" class="st23" width="1.2" height="1.2"/>
		<rect x="280.9" y="72.3" class="st23" width="1.2" height="1.2"/>
		<rect x="280.9" y="74.6" class="st23" width="1.2" height="1.2"/>
		<rect x="280.9" y="76.9" class="st23" width="1.2" height="1.2"/>
		<rect x="280.9" y="79.2" class="st23" width="1.2" height="1.2"/>
		<rect x="280.9" y="81.6" class="st23" width="1.2" height="1.2"/>
		<rect x="280.9" y="83.9" class="st23" width="1.2" height="1.2"/>
		<rect x="280.9" y="86.2" class="st23" width="1.2" height="1.2"/>
		<rect x="280.9" y="88.5" class="st23" width="1.2" height="1.2"/>
		<rect x="284.4" y="60.7" class="st24" width="3.5" height="1.2"/>
		<rect x="284.4" y="63.1" class="st25" width="3.5" height="1.2"/>
		<rect x="284.4" y="86.2" class="st24" width="3.5" height="1.2"/>
		<rect x="291.3" y="70" class="st25" width="6.9" height="1.2"/>
		<rect x="284.4" y="83.9" class="st25" width="3.5" height="1.2"/>
		<rect x="287.8" y="67.7" class="st25" width="9.2" height="1.2"/>
		<rect x="289" y="78.1" class="st25" width="9.2" height="1.2"/>
		<rect x="285.5" y="65.4" class="st24" width="5.8" height="1.2"/>
		<rect x="287.8" y="72.3" class="st24" width="3.5" height="1.2"/>
		<rect x="293.6" y="74.6" class="st24" width="3.5" height="1.2"/>
		<rect x="285.5" y="80.4" class="st24" width="4.6" height="1.2"/>
		<rect x="292.5" y="72.3" class="st26" width="5.8" height="1.2"/>
		<rect x="291.3" y="80.4" class="st26" width="5.8" height="1.2"/>
		<rect x="292.5" y="65.4" class="st26" width="8.1" height="1.2"/>
		<rect x="298.3" y="67.7" class="st26" width="12.7" height="1.2"/>
	</g>
	<g id="line_x5F_0">
		<circle class="st1" cx="311" cy="137.7" r="3"/>
		<circle class="st1" cx="351.4" cy="328.9" r="3"/>
		<polyline class="st1" points="351.4,325.9 351.4,222.3 311,181.9 311,140.7 		"/>
	</g>
	<g id="line_x5F_0_x5F_anim">
		<circle id="circle_x5F_0_x5F_end" class="st3" cx="311" cy="137.7" r="3"/>
		<circle id="circle_x5F_0_x5F_start" class="st3" cx="351.4" cy="328.9" r="3"/>
		<polyline id="path_x5F_0" class="st3" points="351.4,325.9 351.4,222.3 311,181.9 311,140.7 		"/>
	</g>
</g>
<g id="pile">
	<line class="st1" x1="422.2" y1="329.9" x2="494.2" y2="223.9"/>
	<line class="st1" x1="494.2" y1="223.9" x2="545.2" y2="223.9"/>
	<line class="st1" x1="544.2" y1="181.9" x2="544.2" y2="224.9"/>
	<circle class="st1" cx="544.2" cy="178.9" r="3"/>
	<circle class="st1" cx="420.2" cy="331.9" r="3"/>
	<line class="st1" x1="480.2" y1="489.9" x2="599.2" y2="489.9"/>
	<line class="st1" x1="599.2" y1="489.9" x2="645.2" y2="539.8"/>
	<line class="st1" x1="645.2" y1="539.8" x2="684.2" y2="539.8"/>
	<circle class="st1" cx="687.2" cy="539.8" r="3"/>
	<circle class="st1" cx="477.2" cy="489.9" r="3"/>
	<line class="st1" x1="283.2" y1="536.8" x2="196.2" y2="622.8"/>
	<line class="st1" x1="196.2" y1="622.8" x2="77.2" y2="622.8"/>
	<line class="st1" x1="78.2" y1="622.8" x2="78.2" y2="663.8"/>
	<circle class="st1" cx="78.2" cy="666.8" r="3"/>
	<circle class="st1" cx="285.2" cy="534.8" r="3"/>
	<line class="st1" x1="240.2" y1="424.9" x2="112.2" y2="424.9"/>
	<line class="st1" x1="112.2" y1="424.9" x2="112.2" y2="390.9"/>
	<line class="st1" x1="19.2" y1="390.9" x2="112.2" y2="390.9"/>
	<circle class="st1" cx="20.2" cy="408.9" r="3"/>
	<line class="st1" x1="20.2" y1="390.9" x2="20.2" y2="405.9"/>
	<circle class="st1" cx="242.2" cy="424.9" r="3"/>
</g>
</svg>
